<svg xmlns="http://www.w3.org/2000/svg" xmlns:xlink="http://www.w3.org/1999/xlink" xmlns:lucid="lucid" width="1250" height="2536.31"><g transform="translate(-380 -50.99999999994924)" lucid:page-tab-id="0_0"><path d="M568 200c17.67 0 32 17.9 32 40s-14.33 40-32 40h-96c-17.67 0-32-17.9-32-40s14.33-40 32-40z" stroke="#000" stroke-opacity="0" stroke-width="2" fill="#d2d3d5"/><use xlink:href="#a" transform="matrix(1,0,0,1,445,205) translate(56.025 27.799999999999997)"/><use xlink:href="#b" transform="matrix(1,0,0,1,445,205) translate(19.124999999999993 49.4)"/><path d="M858.98 187.73c1.14-4.27 5.64-7.73 10.06-7.73h212c4.42 0 7.08 3.46 5.94 7.73l-27.88 104.54c-1.13 4.27-5.64 7.73-10.06 7.73h-212c-4.42 0-7.07-3.46-5.94-7.73z" stroke="#000" stroke-opacity="0" stroke-width="2" fill="#eb6b6b"/><use xlink:href="#c" transform="matrix(1,0,0,1,834.0426140388013,185) translate(25.625 58.6)"/><use xlink:href="#d" transform="matrix(1,0,0,1,834.0426140388013,185) translate(55.625 58.6)"/><use xlink:href="#e" transform="matrix(1,0,0,1,834.0426140388013,185) translate(85.625 58.6)"/><use xlink:href="#f" transform="matrix(1,0,0,1,834.0426140388013,185) translate(157.575 58.6)"/><use xlink:href="#g" transform="matrix(1,0,0,1,834.0426140388013,185) translate(198.475 58.6)"/><path d="M953.6 384.8c3.53-2.65 9.27-2.65 12.8 0l67.2 50.4c3.53 2.65 3.53 6.95 0 9.6l-67.2 50.4c-3.53 2.65-9.27 2.65-12.8 0l-67.2-50.4c-3.53-2.65-3.53-6.95 0-9.6z" stroke="#c54242" stroke-width="4" fill="#fff"/><use xlink:href="#h" transform="matrix(1,0,0,1,885,384.99999999999994) translate(32.05 58.6)"/><use xlink:href="#i" transform="matrix(1,0,0,1,885,384.99999999999994) translate(62.95 58.6)"/><path d="M400 632.56c0-4.4 3.58-8 8-8h174c4.42 0 8 3.6 8 8v171.72c0 4.42-3.58 8-8 8H408c-4.42 0-8-3.58-8-8z" stroke="#000" stroke-opacity="0" stroke-width="2" fill="#ff8080"/><use xlink:href="#j" transform="matrix(1,0,0,1,405,629.5639138175571) translate(55.05 71)"/><use xlink:href="#k" transform="matrix(1,0,0,1,405,629.5639138175571) translate(99.95 71)"/><use xlink:href="#l" transform="matrix(1,0,0,1,405,629.5639138175571) translate(6.650000000000006 92.60000000000001)"/><use xlink:href="#m" transform="matrix(1,0,0,1,405,629.5639138175571) translate(125.50000000000001 92.60000000000001)"/><use xlink:href="#n" transform="matrix(1,0,0,1,405,629.5639138175571) translate(159.4 92.60000000000001)"/><use xlink:href="#d" transform="matrix(1,0,0,1,405,629.5639138175571) translate(18.549999999999997 114.20000000000002)"/><use xlink:href="#o" transform="matrix(1,0,0,1,405,629.5639138175571) translate(48.55 114.20000000000002)"/><use xlink:href="#p" transform="matrix(1,0,0,1,405,629.5639138175571) translate(78.5 114.20000000000002)"/><use xlink:href="#q" transform="matrix(1,0,0,1,405,629.5639138175571) translate(102.5 114.20000000000002)"/><path d="M952.64 659.45c3.54-2.65 9.27-2.65 12.8 0l67.2 50.4c3.54 2.66 3.54 6.95 0 9.6l-67.2 50.4c-3.53 2.66-9.26 2.66-12.8 0l-67.2-50.4c-3.53-2.65-3.53-6.94 0-9.6z" stroke="#c54242" stroke-width="4" fill="#fff"/><use xlink:href="#r" transform="matrix(1,0,0,1,884.0426140388013,659.6541442989446) translate(28.599999999999994 47.8)"/><use xlink:href="#s" transform="matrix(1,0,0,1,884.0426140388013,659.6541442989446) translate(46.55 47.8)"/><use xlink:href="#t" transform="matrix(1,0,0,1,884.0426140388013,659.6541442989446) translate(77.44999999999999 47.8)"/><use xlink:href="#u" transform="matrix(1,0,0,1,884.0426140388013,659.6541442989446) translate(40.525 69.4)"/><path d="M1028 2487.3c17.67 0 32 17.92 32 40 0 22.1-14.33 40-32 40h-96c-17.67 0-32-17.9-32-40 0-22.08 14.33-40 32-40z" stroke="#000" stroke-opacity="0" stroke-width="2" fill="#d2d3d5"/><use xlink:href="#v" transform="matrix(1,0,0,1,905,2492.3119432099356) translate(56.5 27.799999999999997)"/><use xlink:href="#w" transform="matrix(1,0,0,1,905,2492.3119432099356) translate(19.124999999999993 49.4)"/><path d="M1400 868c0-4.42 3.58-8 8-8h144c4.42 0 8 3.58 8 8v104c0 4.42-3.58 8-8 8h-144c-4.42 0-8-3.58-8-8z" stroke="#000" stroke-opacity="0" stroke-width="2" fill="#ff8080"/><use xlink:href="#x" transform="matrix(1,0,0,1,1405,865) translate(11.649999999999991 58.6)"/><use xlink:href="#y" transform="matrix(1,0,0,1,1405,865) translate(76.55 58.6)"/><path d="M600.5 240h228.16" stroke="#333" fill="none"/><path d="M600.5 240.5h-.53l.03-.5-.02-.5h.53z" stroke="#333" stroke-width=".05" fill="#333"/><path d="M843.42 240l-14.26 4.64v-9.28z" stroke="#333" fill="#333"/><path d="M961 637.08h-2v-50.4h2zm0-69.08h-2v-67.9h2z" stroke="#7ab648" stroke-width=".05" fill="#7ab648"/><path d="M961 499.1v1h-2v-1.02z" fill="#7ab648"/><path d="M961.02 499.07v1.07H959v-1.1zm-2 1.02H961v-.98l-1.96-.02z" stroke="#7ab648" stroke-width=".05" fill="#7ab648"/><path d="M960 652.34l-4.64-14.26h9.28z" fill="#7ab648"/><path d="M960 655.58l-6-18.5h12zm-3.26-16.5L960 649.1l3.26-10.02z" stroke="#7ab648" stroke-width=".05" fill="#7ab648"/><use xlink:href="#z" transform="matrix(1,0,0,1,944.4444444444445,567.998929727371) translate(0 12.444444444444446)"/><path d="M880.86 440H505c-5.52 0-10 4.48-10 10v156.06" stroke="#c92d39" stroke-width="2" fill="none"/><path d="M881.82 441h-1v-2h1.08z" stroke="#c92d39" stroke-width=".05" fill="#c92d39"/><path d="M495 621.33l-4.64-14.27h9.28z" stroke="#c92d39" stroke-width="2" fill="#c92d39"/><use xlink:href="#A" transform="matrix(1,0,0,1,652.3109897289867,444) translate(0 12.444444444444446)"/><path d="M959.04 300.5v39.48c0 .26.22.48.48.48.27 0 .48.2.48.48v23.6" stroke="#333" fill="none"/><path d="M959.54 300.5h-1v-.5h1z" stroke="#333" stroke-width=".05" fill="#333"/><path d="M960 379.3l-4.64-14.27h9.28z" stroke="#333" fill="#333"/><path d="M960 774.75v41.65c0 .26-.2.48-.48.48-.26 0-.48.2-.48.47v24.15" stroke="#c92d39" stroke-width="2" fill="none"/><path d="M961 774.78h-2v-1.04l1.72.02.28-.07z" stroke="#c92d39" stroke-width=".05" fill="#c92d39"/><path d="M959.04 856.76l-4.63-14.26h9.28z" stroke="#c92d39" stroke-width="2" fill="#c92d39"/><use xlink:href="#A" transform="matrix(1,0,0,1,928.7098765432099,791.3012987737185) translate(0 12.444444444444446)"/><path d="M1154.6 715.65H1038.2v-2h116.43zm211.9 0h-180.78v-2h180.78z" stroke="#7ab648" stroke-width=".05" fill="#7ab648"/><path d="M1038.2 715.65h-1.06l.1-2h.97z" fill="#7ab648"/><path d="M1038.24 715.68h-1.12l.08-2.05h1.04zm-1-2l-.07 1.95h1.02v-1.95z" stroke="#7ab648" stroke-width=".05" fill="#7ab648"/><path d="M1381.76 714.65l-14.26 4.64V710z" fill="#7ab648"/><path d="M1385 714.65l-18.5 6.02v-12.03zm-16.5 3.26l10.03-3.25-10.03-3.25z" stroke="#7ab648" stroke-width=".05" fill="#7ab648"/><use xlink:href="#z" transform="matrix(1,0,0,1,1154.613406813041,705.3208109656113) translate(0 12.444444444444446)"/><path d="M532.67 79c0-4.42 3.58-8 8-8h836.75c4.42 0 8 3.58 8 8v25.16c0 4.4-3.58 8-8 8H540.67c-4.42 0-8-3.6-8-8z" stroke="#000" stroke-opacity="0" stroke-width="2" fill="#fff" fill-opacity="0"/><use xlink:href="#B" transform="matrix(1,0,0,1,536.6678598047438,74.99999999994924) translate(257.91493827160497 23.657777777777778)"/><use xlink:href="#C" transform="matrix(1,0,0,1,536.6678598047438,74.99999999994924) translate(318.8816049382716 23.657777777777778)"/><use xlink:href="#D" transform="matrix(1,0,0,1,536.6678598047438,74.99999999994924) translate(388.73469135802475 23.657777777777778)"/><use xlink:href="#E" transform="matrix(1,0,0,1,536.6678598047438,74.99999999994924) translate(458.5877777777778 23.657777777777778)"/><use xlink:href="#F" transform="matrix(1,0,0,1,536.6678598047438,74.99999999994924) translate(525.4544444444444 23.657777777777778)"/><path d="M742.85 110.8h437.9M742.87 110.8h-1.02M1180.73 110.8h1.03" stroke="#a9afb8" stroke-width="2" fill="none"/><path d="M532.67 120.16c0-4.42 3.58-8 8-8h837.7c4.42 0 8 3.58 8 8V123c0 4.42-3.58 8-8 8h-837.7c-4.42 0-8-3.58-8-8z" stroke="#000" stroke-opacity="0" stroke-width="2" fill="#fff" fill-opacity="0"/><use xlink:href="#G" transform="matrix(1,0,0,1,536.6678598047442,116.15522395684805) translate(309.46329218106996 14.917037037037037)"/><use xlink:href="#H" transform="matrix(1,0,0,1,536.6678598047442,116.15522395684805) translate(355.81956790123456 14.917037037037037)"/><use xlink:href="#I" transform="matrix(1,0,0,1,536.6678598047442,116.15522395684805) translate(433.06586419753086 14.917037037037037)"/><use xlink:href="#J" transform="matrix(1,0,0,1,536.6678598047442,116.15522395684805) translate(445.51534979423866 14.917037037037037)"/><use xlink:href="#K" transform="matrix(1,0,0,1,536.6678598047442,116.15522395684805) translate(492.16905349794234 14.917037037037037)"/><use xlink:href="#L" transform="matrix(1,0,0,1,536.6678598047442,116.15522395684805) translate(509.1649382716049 14.917037037037037)"/><path d="M1480 1180.5v1334.8c0 6.64-5.37 12-12 12h-391.62" stroke="#333" fill="none"/><path d="M1480.5 1180.5h-1v-.5h1z" stroke="#333" stroke-width=".05" fill="#333"/><path d="M1061.62 2527.3l14.26-4.62v9.27z" stroke="#333" fill="#333"/><path d="M495.5 2515.28l.4 3.02 1.14 2.75 1.83 2.4 2.4 1.82 2.75 1.15 3 .4h376.6v1H506.97l-3.2-.43-3-1.25-2.6-2-2-2.6-1.25-3-.42-3.2V812.77h1z" stroke="#333" stroke-width=".05" fill="#333"/><path d="M495.5 812.8h-1v-.52h1z" fill="#333"/><path d="M495.52 812.82h-1.04v-.56h1.04zm-1-.5v.45h.96v-.46z" stroke="#333" stroke-width=".05" fill="#333"/><path d="M898.38 2527.3l-14.26 4.65v-9.27z" fill="#333"/><path d="M900 2527.3l-16.38 5.34V2522zm-15.38 3.96l12.14-3.95-12.14-3.94z" stroke="#333" stroke-width=".05" fill="#333"/><path d="M1385 628.1c0-4.4 3.58-8 8-8h174c4.42 0 8 3.6 8 8v171.72c0 4.42-3.58 8-8 8h-174c-4.42 0-8-3.58-8-8z" stroke="#000" stroke-opacity="0" stroke-width="2" fill="#ff8080"/><use xlink:href="#j" transform="matrix(1,0,0,1,1390,625.1066227027874) translate(55.05 71)"/><use xlink:href="#k" transform="matrix(1,0,0,1,1390,625.1066227027874) translate(99.95 71)"/><use xlink:href="#l" transform="matrix(1,0,0,1,1390,625.1066227027874) translate(6.650000000000006 92.60000000000001)"/><use xlink:href="#m" transform="matrix(1,0,0,1,1390,625.1066227027874) translate(125.50000000000001 92.60000000000001)"/><use xlink:href="#n" transform="matrix(1,0,0,1,1390,625.1066227027874) translate(159.4 92.60000000000001)"/><use xlink:href="#d" transform="matrix(1,0,0,1,1390,625.1066227027874) translate(18.549999999999997 114.20000000000002)"/><use xlink:href="#o" transform="matrix(1,0,0,1,1390,625.1066227027874) translate(48.55 114.20000000000002)"/><use xlink:href="#p" transform="matrix(1,0,0,1,1390,625.1066227027874) translate(78.5 114.20000000000002)"/><use xlink:href="#q" transform="matrix(1,0,0,1,1390,625.1066227027874) translate(102.5 114.20000000000002)"/><path d="M1480 808.32v35.3" stroke="#333" fill="none"/><path d="M1480.5 808.34h-1v-.52h1z" stroke="#333" stroke-width=".05" fill="#333"/><path d="M1480 858.38l-4.64-14.26h9.28z" stroke="#333" fill="#333"/><path d="M879.04 868c0-4.42 3.58-8 8-8h144c4.42 0 8 3.58 8 8v104c0 4.42-3.58 8-8 8h-144c-4.42 0-8-3.58-8-8z" stroke="#000" stroke-opacity="0" stroke-width="2" fill="#ff8080"/><use xlink:href="#M" transform="matrix(1,0,0,1,884.0426140388013,865) translate(26.599999999999994 58.6)"/><use xlink:href="#y" transform="matrix(1,0,0,1,884.0426140388013,865) translate(61.599999999999994 58.6)"/><path d="M788.98 1435.04c1.14-4.27 5.64-7.73 10.06-7.73h352c4.42 0 7.08 3.47 5.94 7.74l-27.88 104.54c-1.13 4.27-5.64 7.73-10.06 7.73h-352c-4.42 0-7.07-3.45-5.94-7.72z" stroke="#000" stroke-opacity="0" stroke-width="2" fill="#008573"/><use xlink:href="#c" transform="matrix(1,0,0,1,764.0426140388013,1432.3119432099356) translate(36.67500000000001 58.6)"/><use xlink:href="#d" transform="matrix(1,0,0,1,764.0426140388013,1432.3119432099356) translate(66.67500000000001 58.6)"/><use xlink:href="#l" transform="matrix(1,0,0,1,764.0426140388013,1432.3119432099356) translate(96.67500000000001 58.6)"/><use xlink:href="#e" transform="matrix(1,0,0,1,764.0426140388013,1432.3119432099356) translate(215.52500000000003 58.6)"/><use xlink:href="#f" transform="matrix(1,0,0,1,764.0426140388013,1432.3119432099356) translate(287.475 58.6)"/><use xlink:href="#N" transform="matrix(1,0,0,1,764.0426140388013,1432.3119432099356) translate(328.375 58.6)"/><path d="M959.04 980.5v39.78c0 .13.1.24.24.24.13 0 .24.1.24.24v23.9" stroke="#333" fill="none"/><path d="M959.54 980.5h-1v-.5h1z" stroke="#333" stroke-width=".05" fill="#333"/><path d="M959.52 1059.42l-4.63-14.26h9.26z" stroke="#333" fill="#333"/><path d="M953.6 1612.1c3.53-2.64 9.27-2.64 12.8 0l67.2 50.4c3.53 2.66 3.53 6.96 0 9.6l-67.2 50.4c-3.53 2.66-9.27 2.66-12.8 0l-67.2-50.4c-3.53-2.64-3.53-6.94 0-9.6z" stroke="#c54242" stroke-width="4" fill="#fff"/><use xlink:href="#O" transform="matrix(1,0,0,1,885,1612.3119432099356) translate(11.524999999999999 58.6)"/><use xlink:href="#i" transform="matrix(1,0,0,1,885,1612.3119432099356) translate(83.475 58.6)"/><path d="M959.04 1547.8v44.03" stroke="#333" fill="none"/><path d="M959.54 1547.82h-1v-.5h1z" stroke="#333" stroke-width=".05" fill="#333"/><path d="M959.04 1606.6l-4.63-14.27h9.28z" stroke="#333" fill="#333"/><path d="M1089.94 1775.04c1.14-4.27 5.64-7.73 10.06-7.73h212c4.42 0 7.08 3.47 5.94 7.74l-27.88 104.54c-1.14 4.27-5.64 7.73-10.06 7.73h-212c-4.42 0-7.08-3.45-5.94-7.72z" stroke="#000" stroke-opacity="0" stroke-width="2" fill="#008573"/><use xlink:href="#P" transform="matrix(1,0,0,1,1065,1772.311943209936) translate(52.07499999999999 47.8)"/><use xlink:href="#d" transform="matrix(1,0,0,1,1065,1772.311943209936) translate(100.975 47.8)"/><use xlink:href="#Q" transform="matrix(1,0,0,1,1065,1772.311943209936) translate(130.975 47.8)"/><use xlink:href="#R" transform="matrix(1,0,0,1,1065,1772.311943209936) translate(80.55 69.4)"/><use xlink:href="#d" transform="matrix(1,0,0,1,1065,1772.311943209936) translate(114.5 69.4)"/><use xlink:href="#N" transform="matrix(1,0,0,1,1065,1772.311943209936) translate(144.5 69.4)"/><path d="M1039.14 1667.3H1180c5.52 0 10 4.5 10 10v71.5" stroke="#c92d39" stroke-width="2" fill="none"/><path d="M1039.17 1668.3h-1.07l.08-2h1z" stroke="#c92d39" stroke-width=".05" fill="#c92d39"/><path d="M1190 1764.08l-4.64-14.27h9.28z" stroke="#c92d39" stroke-width="2" fill="#c92d39"/><g><use xlink:href="#A" transform="matrix(1,0,0,1,1094.5094067314687,1671.3119432099356) translate(0 12.444444444444446)"/></g><path d="M580 1935.3c0-4.4 3.58-8 8-8h363.04c4.42 0 8 3.6 8 8v104c0 4.43-3.58 8-8 8H588c-4.42 0-8-3.57-8-8z" stroke="#000" stroke-opacity="0" stroke-width="2" fill="#ff8080"/><g><use xlink:href="#S" transform="matrix(1,0,0,1,585,1932.3119432099359) translate(25.724999999999994 58.6)"/><use xlink:href="#T" transform="matrix(1,0,0,1,585,1932.3119432099359) translate(100.625 58.6)"/><use xlink:href="#U" transform="matrix(1,0,0,1,585,1932.3119432099359) translate(131.525 58.6)"/><use xlink:href="#d" transform="matrix(1,0,0,1,585,1932.3119432099359) translate(168.425 58.6)"/><use xlink:href="#e" transform="matrix(1,0,0,1,585,1932.3119432099359) translate(198.425 58.6)"/><use xlink:href="#V" transform="matrix(1,0,0,1,585,1932.3119432099359) translate(270.375 58.6)"/><use xlink:href="#d" transform="matrix(1,0,0,1,585,1932.3119432099359) translate(289.32500000000005 58.6)"/><use xlink:href="#N" transform="matrix(1,0,0,1,585,1932.3119432099359) translate(319.32500000000005 58.6)"/></g><path d="M1190 1887.8v87.5c0 6.64-5.37 12-12 12H975.43" stroke="#333" fill="none"/><path d="M1190.5 1887.82h-1v-.5h1z" stroke="#333" stroke-width=".05" fill="#333"/><path d="M960.66 1987.3l14.27-4.62v9.27z" stroke="#333" fill="#333"/><path d="M770.52 1908.8h-2v-156.86h2zm110.34-240.5H781.6l-2.93.4-2.64 1.1-2.28 1.74-1.76 2.3-1.1 2.62-.38 2.92v50.96h-2v-51.1l.43-3.3 1.3-3.12 2.07-2.7 2.7-2.08 3.13-1.3 3.3-.43h99.4z" stroke="#7ab648" stroke-width=".05" fill="#7ab648"/><path d="M881.82 1668.3h-1v-2h1.08z" fill="#7ab648"/><path d="M881.84 1668.34h-1.03v-2.05h1.13zm-.98-2v1.95h.93l.07-1.96z" stroke="#7ab648" stroke-width=".05" fill="#7ab648"/><path d="M769.52 1924.08l-4.63-14.27h9.26z" fill="#7ab648"/><path d="M769.52 1927.3l-6-18.5h12zm-3.26-16.5l3.26 10.04 3.26-10.03z" stroke="#7ab648" stroke-width=".05" fill="#7ab648"/><g><use xlink:href="#W" transform="matrix(1,0,0,1,754.8463070194007,1730.3437260895864) translate(0.005000000000000782 14.4)"/></g><path d="M761.75 2169.2c4.3-1.04 11.25-1.04 15.54 0l229.7 56.2c4.28 1.06 4.28 2.76 0 3.8l-229.7 56.2c-4.3 1.06-11.26 1.06-15.55 0l-229.7-56.2c-4.3-1.04-4.3-2.74 0-3.8z" stroke="#c54242" stroke-width="4" fill="#fff"/><g><use xlink:href="#X" transform="matrix(1,0,0,1,529.281960529101,2172.3119432099356) translate(138.65 47.8)"/><use xlink:href="#Y" transform="matrix(1,0,0,1,529.281960529101,2172.3119432099356) translate(168.65 47.8)"/><use xlink:href="#Z" transform="matrix(1,0,0,1,529.281960529101,2172.3119432099356) translate(230.60000000000002 47.8)"/><use xlink:href="#s" transform="matrix(1,0,0,1,529.281960529101,2172.3119432099356) translate(249.55 47.8)"/><use xlink:href="#aa" transform="matrix(1,0,0,1,529.281960529101,2172.3119432099356) translate(280.45000000000005 47.8)"/><use xlink:href="#ab" transform="matrix(1,0,0,1,529.281960529101,2172.3119432099356) translate(298.4 47.8)"/><use xlink:href="#ac" transform="matrix(1,0,0,1,529.281960529101,2172.3119432099356) translate(137.575 69.4)"/><use xlink:href="#ad" transform="matrix(1,0,0,1,529.281960529101,2172.3119432099356) translate(157.575 69.4)"/><use xlink:href="#ae" transform="matrix(1,0,0,1,529.281960529101,2172.3119432099356) translate(187.575 69.4)"/><use xlink:href="#Z" transform="matrix(1,0,0,1,529.281960529101,2172.3119432099356) translate(259.525 69.4)"/><use xlink:href="#ad" transform="matrix(1,0,0,1,529.281960529101,2172.3119432099356) translate(278.475 69.4)"/><use xlink:href="#af" transform="matrix(1,0,0,1,529.281960529101,2172.3119432099356) translate(308.475 69.4)"/></g><path d="M769.52 2047.8v102.33" stroke="#333" fill="none"/><path d="M770.02 2047.82h-1v-.5h1z" stroke="#333" stroke-width=".05" fill="#333"/><path d="M769.52 2164.9l-4.63-14.27h9.26z" stroke="#333" fill="#333"/><path d="M968.07 2446.3l3.3.45 3.13 1.3 2.7 2.06 2.07 2.72 1.3 3.12.43 3.3v9.57h-2v-9.42l-.38-2.92-1.1-2.63-1.75-2.3-2.28-1.74-2.65-1.1-2.92-.4h-305.7v-2zm-446-218l-2.92.4-2.64 1.1-2.27 1.74-1.76 2.3-1.1 2.62-.37 2.92v195.87l.38 2.92 1.1 2.63 1.75 2.28 2.28 1.76 2.65 1.1 2.92.37h110.8v2H521.93l-3.3-.42-3.13-1.3-2.7-2.07-2.07-2.7-1.3-3.1-.43-3.32v-196.13l.43-3.3 1.3-3.13 2.07-2.7 2.7-2.08 3.13-1.3 3.3-.43h1.97v2z" stroke="#7ab648" stroke-width=".05" fill="#7ab648"/><path d="M524.9 2227.3l1.7 1h-2.72v-2h2.7z" fill="#7ab648"/><path d="M524.95 2227.3l1.74 1.04h-2.85v-2.05h2.84zm-1.05-.96v1.95h2.6l-1.65-1 1.65-.96z" stroke="#7ab648" stroke-width=".05" fill="#7ab648"/><path d="M980 2484.08l-4.64-14.27h9.28z" fill="#7ab648"/><path d="M980 2487.3l-6-18.5h12zm-3.26-16.5l3.26 10.04 3.26-10.03z" stroke="#7ab648" stroke-width=".05" fill="#7ab648"/><g><use xlink:href="#W" transform="matrix(1,0,0,1,632.8743009741776,2436.5119432099364) translate(0.005000000000000782 14.4)"/></g><path d="M1089.94 2295.04c1.14-4.27 5.64-7.73 10.06-7.73h212c4.42 0 7.08 3.47 5.94 7.74l-27.88 104.54c-1.14 4.27-5.64 7.73-10.06 7.73h-212c-4.42 0-7.08-3.45-5.94-7.72z" stroke="#000" stroke-opacity="0" stroke-width="2" fill="#008573"/><g><use xlink:href="#ag" transform="matrix(1,0,0,1,1065,2292.3119432099356) translate(46.525000000000006 47.8)"/><use xlink:href="#d" transform="matrix(1,0,0,1,1065,2292.3119432099356) translate(106.525 47.8)"/><use xlink:href="#Q" transform="matrix(1,0,0,1,1065,2292.3119432099356) translate(136.525 47.8)"/><use xlink:href="#ah" transform="matrix(1,0,0,1,1065,2292.3119432099356) translate(88.05 69.4)"/><use xlink:href="#d" transform="matrix(1,0,0,1,1065,2292.3119432099356) translate(107 69.4)"/><use xlink:href="#N" transform="matrix(1,0,0,1,1065,2292.3119432099356) translate(137 69.4)"/></g><path d="M1015.14 2227.3H1180c5.52 0 10 4.5 10 10v31.5" stroke="#c92d39" stroke-width="2" fill="none"/><path d="M1015.17 2228.3h-2.72l1.7-1-1.7-1h2.72z" stroke="#c92d39" stroke-width=".05" fill="#c92d39"/><path d="M1190 2284.08l-4.64-14.27h9.28z" stroke="#c92d39" stroke-width="2" fill="#c92d39"/><g><use xlink:href="#A" transform="matrix(1,0,0,1,1065.5370204764313,2231.3119432099356) translate(0 12.444444444444446)"/></g><path d="M1190 2407.8v107.5c0 6.64-5.37 12-12 12h-101.62" stroke="#333" fill="none"/><path d="M1190.5 2407.82h-1v-.5h1z" stroke="#333" stroke-width=".05" fill="#333"/><path d="M1061.62 2527.3l14.26-4.62v9.27z" stroke="#333" fill="#333"/><path d="M859.46 1068.77c1.14-4.27 5.64-7.73 10.06-7.73h212c4.42 0 7.08 3.46 5.94 7.73l-27.88 104.54c-1.14 4.28-5.64 7.74-10.06 7.74h-212c-4.42 0-7.08-3.46-5.94-7.73z" stroke="#000" stroke-opacity="0" stroke-width="2" fill="#eb6b6b"/><g><use xlink:href="#ag" transform="matrix(1,0,0,1,834.5213070194009,1066.0394534156517) translate(82.05 58.6)"/><use xlink:href="#g" transform="matrix(1,0,0,1,834.5213070194009,1066.0394534156517) translate(142.05 58.6)"/></g><path d="M959.52 1181.54v28.74c0 .13.1.24.24.24.13 0 .24.1.24.24v12.86" stroke="#333" fill="none"/><path d="M960.02 1181.55h-1v-.5h1z" stroke="#333" stroke-width=".05" fill="#333"/><path d="M960 1238.38l-4.64-14.26h9.28z" stroke="#333" fill="#333"/><path d="M1379.94 1067.73c1.14-4.27 5.64-7.73 10.06-7.73h212c4.42 0 7.08 3.46 5.94 7.73l-27.88 104.54c-1.14 4.27-5.64 7.73-10.06 7.73h-212c-4.42 0-7.08-3.46-5.94-7.73z" stroke="#000" stroke-opacity="0" stroke-width="2" fill="#eb6b6b"/><g><use xlink:href="#ag" transform="matrix(1,0,0,1,1355,1065) translate(82.05 58.6)"/><use xlink:href="#g" transform="matrix(1,0,0,1,1355,1065) translate(142.05 58.6)"/></g><path d="M1480 980.5v63.12" stroke="#333" fill="none"/><path d="M1480.5 980.5h-1v-.5h1z" stroke="#333" stroke-width=".05" fill="#333"/><path d="M1480 1058.38l-4.64-14.26h9.28z" stroke="#333" fill="#333"/><path d="M880 1248c0-4.42 3.58-8 8-8h144c4.42 0 8 3.58 8 8v104c0 4.42-3.58 8-8 8H888c-4.42 0-8-3.58-8-8z" stroke="#000" stroke-opacity="0" stroke-width="2" fill="#ff8080"/><g><use xlink:href="#ai" transform="matrix(1,0,0,1,885,1245) translate(17.549999999999997 58.6)"/><use xlink:href="#aj" transform="matrix(1,0,0,1,885,1245) translate(65.5 58.6)"/></g><path d="M960 1360.5v50.43" stroke="#333" fill="none"/><path d="M960.5 1360.5h-1v-.5h1z" stroke="#333" stroke-width=".05" fill="#333"/><path d="M960 1425.7l-4.64-14.27h9.28z" stroke="#333" fill="#333"/><defs><path fill="#3d4752" d="M185-189c-5-48-123-54-124 2 14 75 158 14 163 119 3 78-121 87-175 55-17-10-28-26-33-46l33-7c5 56 141 63 141-1 0-78-155-14-162-118-5-82 145-84 179-34 5 7 8 16 11 25" id="ak"/><path fill="#3d4752" d="M59-47c-2 24 18 29 38 22v24C64 9 27 4 27-40v-127H5v-23h24l9-43h21v43h35v23H59v120" id="al"/><path fill="#3d4752" d="M141-36C126-15 110 5 73 4 37 3 15-17 15-53c-1-64 63-63 125-63 3-35-9-54-41-54-24 1-41 7-42 31l-33-3c5-37 33-52 76-52 45 0 72 20 72 64v82c-1 20 7 32 28 27v20c-31 9-61-2-59-35zM48-53c0 20 12 33 32 33 41-3 63-29 60-74-43 2-92-5-92 41" id="am"/><path fill="#3d4752" d="M114-163C36-179 61-72 57 0H25l-1-190h30c1 12-1 29 2 39 6-27 23-49 58-41v29" id="an"/><g id="a"><use transform="matrix(0.05,0,0,0.05,0,0)" xlink:href="#ak"/><use transform="matrix(0.05,0,0,0.05,12,0)" xlink:href="#al"/><use transform="matrix(0.05,0,0,0.05,17,0)" xlink:href="#am"/><use transform="matrix(0.05,0,0,0.05,27,0)" xlink:href="#an"/><use transform="matrix(0.05,0,0,0.05,32.95,0)" xlink:href="#al"/></g><path fill="#3d4752" d="M233-177c-1 41-23 64-60 70L243 0h-38l-65-103H63V0H30v-248c88 3 205-21 203 71zM63-129c60-2 137 13 137-47 0-61-80-42-137-45v92" id="ao"/><path fill="#3d4752" d="M100-194c63 0 86 42 84 106H49c0 40 14 67 53 68 26 1 43-12 49-29l28 8c-11 28-37 45-77 45C44 4 14-33 15-96c1-61 26-98 85-98zm52 81c6-60-76-77-97-28-3 7-6 17-6 28h103" id="ap"/><path fill="#3d4752" d="M96-169c-40 0-48 33-48 73s9 75 48 75c24 0 41-14 43-38l32 2c-6 37-31 61-74 61-59 0-76-41-82-99-10-93 101-131 147-64 4 7 5 14 7 22l-32 3c-4-21-16-35-41-35" id="aq"/><path fill="#3d4752" d="M100-194c62-1 85 37 85 99 1 63-27 99-86 99S16-35 15-95c0-66 28-99 85-99zM99-20c44 1 53-31 53-75 0-43-8-75-51-75s-53 32-53 75 10 74 51 75" id="ar"/><path fill="#3d4752" d="M117-194c89-4 53 116 60 194h-32v-121c0-31-8-49-39-48C34-167 62-67 57 0H25l-1-190h30c1 10-1 24 2 32 11-22 29-35 61-36" id="as"/><path fill="#3d4752" d="M24-231v-30h32v30H24zM24 0v-190h32V0H24" id="at"/><path fill="#3d4752" d="M24 0v-261h32V0H24" id="au"/><g id="b"><use transform="matrix(0.05,0,0,0.05,0,0)" xlink:href="#ao"/><use transform="matrix(0.05,0,0,0.05,12.950000000000001,0)" xlink:href="#ap"/><use transform="matrix(0.05,0,0,0.05,22.950000000000003,0)" xlink:href="#aq"/><use transform="matrix(0.05,0,0,0.05,31.950000000000003,0)" xlink:href="#ar"/><use transform="matrix(0.05,0,0,0.05,41.95,0)" xlink:href="#as"/><use transform="matrix(0.05,0,0,0.05,51.95,0)" xlink:href="#aq"/><use transform="matrix(0.05,0,0,0.05,60.95,0)" xlink:href="#at"/><use transform="matrix(0.05,0,0,0.05,64.9,0)" xlink:href="#au"/><use transform="matrix(0.05,0,0,0.05,68.85000000000001,0)" xlink:href="#at"/><use transform="matrix(0.05,0,0,0.05,72.80000000000001,0)" xlink:href="#am"/><use transform="matrix(0.05,0,0,0.05,82.80000000000001,0)" xlink:href="#al"/><use transform="matrix(0.05,0,0,0.05,87.80000000000001,0)" xlink:href="#at"/><use transform="matrix(0.05,0,0,0.05,91.75000000000001,0)" xlink:href="#ar"/><use transform="matrix(0.05,0,0,0.05,101.75000000000001,0)" xlink:href="#as"/></g><path fill="#fff" d="M177-190C167-65 218 103 67 71c-23-6-38-20-44-43l32-5c15 47 100 32 89-28v-30C133-14 115 1 83 1 29 1 15-40 15-95c0-56 16-97 71-98 29-1 48 16 59 35 1-10 0-23 2-32h30zM94-22c36 0 50-32 50-73 0-42-14-75-50-75-39 0-46 34-46 75s6 73 46 73" id="av"/><path fill="#fff" d="M100-194c63 0 86 42 84 106H49c0 40 14 67 53 68 26 1 43-12 49-29l28 8c-11 28-37 45-77 45C44 4 14-33 15-96c1-61 26-98 85-98zm52 81c6-60-76-77-97-28-3 7-6 17-6 28h103" id="aw"/><path fill="#fff" d="M59-47c-2 24 18 29 38 22v24C64 9 27 4 27-40v-127H5v-23h24l9-43h21v43h35v23H59v120" id="ax"/><g id="c"><use transform="matrix(0.05,0,0,0.05,0,0)" xlink:href="#av"/><use transform="matrix(0.05,0,0,0.05,10,0)" xlink:href="#aw"/><use transform="matrix(0.05,0,0,0.05,20,0)" xlink:href="#ax"/></g><path fill="#fff" d="M106-169C34-169 62-67 57 0H25v-261h32l-1 103c12-21 28-36 61-36 89 0 53 116 60 194h-32v-121c2-32-8-49-39-48" id="ay"/><g id="d"><use transform="matrix(0.05,0,0,0.05,0,0)" xlink:href="#ax"/><use transform="matrix(0.05,0,0,0.05,5,0)" xlink:href="#ay"/><use transform="matrix(0.05,0,0,0.05,15,0)" xlink:href="#aw"/></g><path fill="#fff" d="M24-231v-30h32v30H24zM24 0v-190h32V0H24" id="az"/><path fill="#fff" d="M117-194c89-4 53 116 60 194h-32v-121c0-31-8-49-39-48C34-167 62-67 57 0H25l-1-190h30c1 10-1 24 2 32 11-22 29-35 61-36" id="aA"/><path fill="#fff" d="M135-143c-3-34-86-38-87 0 15 53 115 12 119 90S17 21 10-45l28-5c4 36 97 45 98 0-10-56-113-15-118-90-4-57 82-63 122-42 12 7 21 19 24 35" id="aB"/><path fill="#fff" d="M141-36C126-15 110 5 73 4 37 3 15-17 15-53c-1-64 63-63 125-63 3-35-9-54-41-54-24 1-41 7-42 31l-33-3c5-37 33-52 76-52 45 0 72 20 72 64v82c-1 20 7 32 28 27v20c-31 9-61-2-59-35zM48-53c0 20 12 33 32 33 41-3 63-29 60-74-43 2-92-5-92 41" id="aC"/><path fill="#fff" d="M96-169c-40 0-48 33-48 73s9 75 48 75c24 0 41-14 43-38l32 2c-6 37-31 61-74 61-59 0-76-41-82-99-10-93 101-131 147-64 4 7 5 14 7 22l-32 3c-4-21-16-35-41-35" id="aD"/><g id="e"><use transform="matrix(0.05,0,0,0.05,0,0)" xlink:href="#az"/><use transform="matrix(0.05,0,0,0.05,3.95,0)" xlink:href="#aA"/><use transform="matrix(0.05,0,0,0.05,13.949999999999998,0)" xlink:href="#aB"/><use transform="matrix(0.05,0,0,0.05,22.95,0)" xlink:href="#ax"/><use transform="matrix(0.05,0,0,0.05,27.950000000000003,0)" xlink:href="#aC"/><use transform="matrix(0.05,0,0,0.05,37.95,0)" xlink:href="#aA"/><use transform="matrix(0.05,0,0,0.05,47.95,0)" xlink:href="#aD"/><use transform="matrix(0.05,0,0,0.05,56.95,0)" xlink:href="#aw"/></g><path fill="#fff" d="M101-234c-31-9-42 10-38 44h38v23H63V0H32v-167H5v-23h27c-7-52 17-82 69-68v24" id="aE"/><path fill="#fff" d="M114-163C36-179 61-72 57 0H25l-1-190h30c1 12-1 29 2 39 6-27 23-49 58-41v29" id="aF"/><path fill="#fff" d="M100-194c62-1 85 37 85 99 1 63-27 99-86 99S16-35 15-95c0-66 28-99 85-99zM99-20c44 1 53-31 53-75 0-43-8-75-51-75s-53 32-53 75 10 74 51 75" id="aG"/><path fill="#fff" d="M210-169c-67 3-38 105-44 169h-31v-121c0-29-5-50-35-48C34-165 62-65 56 0H25l-1-190h30c1 10-1 24 2 32 10-44 99-50 107 0 11-21 27-35 58-36 85-2 47 119 55 194h-31v-121c0-29-5-49-35-48" id="aH"/><g id="f"><use transform="matrix(0.05,0,0,0.05,0,0)" xlink:href="#aE"/><use transform="matrix(0.05,0,0,0.05,5,0)" xlink:href="#aF"/><use transform="matrix(0.05,0,0,0.05,10.95,0)" xlink:href="#aG"/><use transform="matrix(0.05,0,0,0.05,20.95,0)" xlink:href="#aH"/></g><path fill="#fff" d="M212-179c-10-28-35-45-73-45-59 0-87 40-87 99 0 60 29 101 89 101 43 0 62-24 78-52l27 14C228-24 195 4 139 4 59 4 22-46 18-125c-6-104 99-153 187-111 19 9 31 26 39 46" id="aI"/><path fill="#fff" d="M233-177c-1 41-23 64-60 70L243 0h-38l-65-103H63V0H30v-248c88 3 205-21 203 71zM63-129c60-2 137 13 137-47 0-61-80-42-137-45v92" id="aJ"/><g id="g"><use transform="matrix(0.05,0,0,0.05,0,0)" xlink:href="#aI"/><use transform="matrix(0.05,0,0,0.05,12.950000000000001,0)" xlink:href="#aJ"/></g><path fill="#333" d="M212-179c-10-28-35-45-73-45-59 0-87 40-87 99 0 60 29 101 89 101 43 0 62-24 78-52l27 14C228-24 195 4 139 4 59 4 22-46 18-125c-6-104 99-153 187-111 19 9 31 26 39 46" id="aK"/><path fill="#333" d="M233-177c-1 41-23 64-60 70L243 0h-38l-65-103H63V0H30v-248c88 3 205-21 203 71zM63-129c60-2 137 13 137-47 0-61-80-42-137-45v92" id="aL"/><g id="h"><use transform="matrix(0.05,0,0,0.05,0,0)" xlink:href="#aK"/><use transform="matrix(0.05,0,0,0.05,12.950000000000001,0)" xlink:href="#aL"/></g><path fill="#333" d="M101-234c-31-9-42 10-38 44h38v23H63V0H32v-167H5v-23h27c-7-52 17-82 69-68v24" id="aM"/><path fill="#333" d="M100-194c62-1 85 37 85 99 1 63-27 99-86 99S16-35 15-95c0-66 28-99 85-99zM99-20c44 1 53-31 53-75 0-43-8-75-51-75s-53 32-53 75 10 74 51 75" id="aN"/><path fill="#333" d="M84 4C-5 8 30-112 23-190h32v120c0 31 7 50 39 49 72-2 45-101 50-169h31l1 190h-30c-1-10 1-25-2-33-11 22-28 36-60 37" id="aO"/><path fill="#333" d="M117-194c89-4 53 116 60 194h-32v-121c0-31-8-49-39-48C34-167 62-67 57 0H25l-1-190h30c1 10-1 24 2 32 11-22 29-35 61-36" id="aP"/><path fill="#333" d="M85-194c31 0 48 13 60 33l-1-100h32l1 261h-30c-2-10 0-23-3-31C134-8 116 4 85 4 32 4 16-35 15-94c0-66 23-100 70-100zm9 24c-40 0-46 34-46 75 0 40 6 74 45 74 42 0 51-32 51-76 0-42-9-74-50-73" id="aQ"/><path fill="#333" d="M103-251c84 0 111 97 45 133-19 10-37 24-39 52H78c0-63 77-55 77-114 0-30-21-42-52-43-32 0-53 17-56 46l-32-2c7-45 34-72 88-72zM77 0v-35h34V0H77" id="aR"/><g id="i"><use transform="matrix(0.05,0,0,0.05,0,0)" xlink:href="#aM"/><use transform="matrix(0.05,0,0,0.05,5,0)" xlink:href="#aN"/><use transform="matrix(0.05,0,0,0.05,15,0)" xlink:href="#aO"/><use transform="matrix(0.05,0,0,0.05,25,0)" xlink:href="#aP"/><use transform="matrix(0.05,0,0,0.05,35,0)" xlink:href="#aQ"/><use transform="matrix(0.05,0,0,0.05,45,0)" xlink:href="#aR"/></g><path fill="#fff" d="M240 0l2-218c-23 76-54 145-80 218h-23L58-218 59 0H30v-248h44l77 211c21-75 51-140 76-211h43V0h-30" id="aS"/><path fill="#fff" d="M143 0L79-87 56-68V0H24v-261h32v163l83-92h37l-77 82L181 0h-38" id="aT"/><g id="j"><use transform="matrix(0.05,0,0,0.05,0,0)" xlink:href="#aS"/><use transform="matrix(0.05,0,0,0.05,14.950000000000001,0)" xlink:href="#aC"/><use transform="matrix(0.05,0,0,0.05,24.950000000000003,0)" xlink:href="#aF"/><use transform="matrix(0.05,0,0,0.05,30.900000000000002,0)" xlink:href="#aT"/></g><g id="k"><use transform="matrix(0.05,0,0,0.05,0,0)" xlink:href="#ax"/><use transform="matrix(0.05,0,0,0.05,5,0)" xlink:href="#ay"/><use transform="matrix(0.05,0,0,0.05,15,0)" xlink:href="#aw"/></g><path fill="#fff" d="M115-194c55 1 70 41 70 98S169 2 115 4C84 4 66-9 55-30l1 105H24l-1-265h31l2 30c10-21 28-34 59-34zm-8 174c40 0 45-34 45-75s-6-73-45-74c-42 0-51 32-51 76 0 43 10 73 51 73" id="aU"/><path fill="#fff" d="M85-194c31 0 48 13 60 33l-1-100h32l1 261h-30c-2-10 0-23-3-31C134-8 116 4 85 4 32 4 16-35 15-94c0-66 23-100 70-100zm9 24c-40 0-46 34-46 75 0 40 6 74 45 74 42 0 51-32 51-76 0-42-9-74-50-73" id="aV"/><g id="l"><use transform="matrix(0.05,0,0,0.05,0,0)" xlink:href="#aD"/><use transform="matrix(0.05,0,0,0.05,9,0)" xlink:href="#aG"/><use transform="matrix(0.05,0,0,0.05,19,0)" xlink:href="#aF"/><use transform="matrix(0.05,0,0,0.05,24.95,0)" xlink:href="#aF"/><use transform="matrix(0.05,0,0,0.05,30.899999999999995,0)" xlink:href="#aw"/><use transform="matrix(0.05,0,0,0.05,40.9,0)" xlink:href="#aB"/><use transform="matrix(0.05,0,0,0.05,49.9,0)" xlink:href="#aU"/><use transform="matrix(0.05,0,0,0.05,59.900000000000006,0)" xlink:href="#aG"/><use transform="matrix(0.05,0,0,0.05,69.9,0)" xlink:href="#aA"/><use transform="matrix(0.05,0,0,0.05,79.9,0)" xlink:href="#aV"/><use transform="matrix(0.05,0,0,0.05,89.9,0)" xlink:href="#az"/><use transform="matrix(0.05,0,0,0.05,93.85000000000001,0)" xlink:href="#aA"/><use transform="matrix(0.05,0,0,0.05,103.85000000000001,0)" xlink:href="#av"/></g><path fill="#fff" d="M206 0h-36l-40-164L89 0H53L-1-190h32L70-26l43-164h34l41 164 42-164h31" id="aW"/><g id="m"><use transform="matrix(0.05,0,0,0.05,0,0)" xlink:href="#aF"/><use transform="matrix(0.05,0,0,0.05,5.95,0)" xlink:href="#aG"/><use transform="matrix(0.05,0,0,0.05,15.949999999999998,0)" xlink:href="#aW"/></g><g id="n"><use transform="matrix(0.05,0,0,0.05,0,0)" xlink:href="#az"/><use transform="matrix(0.05,0,0,0.05,3.95,0)" xlink:href="#aA"/></g><path fill="#fff" d="M30-248c118-7 216 8 213 122C240-48 200 0 122 0H30v-248zM63-27c89 8 146-16 146-99s-60-101-146-95v194" id="aX"/><path fill="#fff" d="M160-131c35 5 61 23 61 61C221 17 115-2 30 0v-248c76 3 177-17 177 60 0 33-19 50-47 57zm-97-11c50-1 110 9 110-42 0-47-63-36-110-37v79zm0 115c55-2 124 14 124-45 0-56-70-42-124-44v89" id="aY"/><g id="o"><use transform="matrix(0.05,0,0,0.05,0,0)" xlink:href="#aX"/><use transform="matrix(0.05,0,0,0.05,12.950000000000001,0)" xlink:href="#aY"/></g><g id="p"><use transform="matrix(0.05,0,0,0.05,0,0)" xlink:href="#aC"/><use transform="matrix(0.05,0,0,0.05,10,0)" xlink:href="#aB"/></g><path fill="#fff" d="M24 0v-261h32V0H24" id="aZ"/><g id="q"><use transform="matrix(0.05,0,0,0.05,0,0)" xlink:href="#aV"/><use transform="matrix(0.05,0,0,0.05,10,0)" xlink:href="#aw"/><use transform="matrix(0.05,0,0,0.05,20,0)" xlink:href="#aZ"/><use transform="matrix(0.05,0,0,0.05,23.95,0)" xlink:href="#aw"/><use transform="matrix(0.05,0,0,0.05,33.95,0)" xlink:href="#ax"/><use transform="matrix(0.05,0,0,0.05,38.95,0)" xlink:href="#aw"/><use transform="matrix(0.05,0,0,0.05,48.95,0)" xlink:href="#aV"/></g><path fill="#333" d="M24-231v-30h32v30H24zM24 0v-190h32V0H24" id="ba"/><path fill="#333" d="M135-143c-3-34-86-38-87 0 15 53 115 12 119 90S17 21 10-45l28-5c4 36 97 45 98 0-10-56-113-15-118-90-4-57 82-63 122-42 12 7 21 19 24 35" id="bb"/><g id="r"><use transform="matrix(0.05,0,0,0.05,0,0)" xlink:href="#ba"/><use transform="matrix(0.05,0,0,0.05,3.95,0)" xlink:href="#bb"/></g><g id="s"><use transform="matrix(0.05,0,0,0.05,0,0)" xlink:href="#aK"/><use transform="matrix(0.05,0,0,0.05,12.950000000000001,0)" xlink:href="#aL"/></g><path fill="#333" d="M115-194c53 0 69 39 70 98 0 66-23 100-70 100C84 3 66-7 56-30L54 0H23l1-261h32v101c10-23 28-34 59-34zm-8 174c40 0 45-34 45-75 0-40-5-75-45-74-42 0-51 32-51 76 0 43 10 73 51 73" id="bc"/><path fill="#333" d="M100-194c63 0 86 42 84 106H49c0 40 14 67 53 68 26 1 43-12 49-29l28 8c-11 28-37 45-77 45C44 4 14-33 15-96c1-61 26-98 85-98zm52 81c6-60-76-77-97-28-3 7-6 17-6 28h103" id="bd"/><path fill="#333" d="M177-190C167-65 218 103 67 71c-23-6-38-20-44-43l32-5c15 47 100 32 89-28v-30C133-14 115 1 83 1 29 1 15-40 15-95c0-56 16-97 71-98 29-1 48 16 59 35 1-10 0-23 2-32h30zM94-22c36 0 50-32 50-73 0-42-14-75-50-75-39 0-46 34-46 75s6 73 46 73" id="be"/><g id="t"><use transform="matrix(0.05,0,0,0.05,0,0)" xlink:href="#bc"/><use transform="matrix(0.05,0,0,0.05,10,0)" xlink:href="#bd"/><use transform="matrix(0.05,0,0,0.05,20,0)" xlink:href="#ba"/><use transform="matrix(0.05,0,0,0.05,23.95,0)" xlink:href="#aP"/><use transform="matrix(0.05,0,0,0.05,33.95,0)" xlink:href="#be"/></g><path fill="#333" d="M24 0v-261h32V0H24" id="bf"/><path fill="#333" d="M59-47c-2 24 18 29 38 22v24C64 9 27 4 27-40v-127H5v-23h24l9-43h21v43h35v23H59v120" id="bg"/><g id="u"><use transform="matrix(0.05,0,0,0.05,0,0)" xlink:href="#aQ"/><use transform="matrix(0.05,0,0,0.05,10,0)" xlink:href="#bd"/><use transform="matrix(0.05,0,0,0.05,20,0)" xlink:href="#bf"/><use transform="matrix(0.05,0,0,0.05,23.95,0)" xlink:href="#bd"/><use transform="matrix(0.05,0,0,0.05,33.95,0)" xlink:href="#bg"/><use transform="matrix(0.05,0,0,0.05,38.95,0)" xlink:href="#bd"/><use transform="matrix(0.05,0,0,0.05,48.95,0)" xlink:href="#aQ"/><use transform="matrix(0.05,0,0,0.05,58.95,0)" xlink:href="#aR"/></g><path fill="#333" d="M185-189c-5-48-123-54-124 2 14 75 158 14 163 119 3 78-121 87-175 55-17-10-28-26-33-46l33-7c5 56 141 63 141-1 0-78-155-14-162-118-5-82 145-84 179-34 5 7 8 16 11 25" id="bh"/><path fill="#333" d="M115-194c55 1 70 41 70 98S169 2 115 4C84 4 66-9 55-30l1 105H24l-1-265h31l2 30c10-21 28-34 59-34zm-8 174c40 0 45-34 45-75s-6-73-45-74c-42 0-51 32-51 76 0 43 10 73 51 73" id="bi"/><g id="v"><use transform="matrix(0.05,0,0,0.05,0,0)" xlink:href="#bh"/><use transform="matrix(0.05,0,0,0.05,12,0)" xlink:href="#bg"/><use transform="matrix(0.05,0,0,0.05,17,0)" xlink:href="#aN"/><use transform="matrix(0.05,0,0,0.05,27,0)" xlink:href="#bi"/></g><path fill="#333" d="M96-169c-40 0-48 33-48 73s9 75 48 75c24 0 41-14 43-38l32 2c-6 37-31 61-74 61-59 0-76-41-82-99-10-93 101-131 147-64 4 7 5 14 7 22l-32 3c-4-21-16-35-41-35" id="bj"/><path fill="#333" d="M141-36C126-15 110 5 73 4 37 3 15-17 15-53c-1-64 63-63 125-63 3-35-9-54-41-54-24 1-41 7-42 31l-33-3c5-37 33-52 76-52 45 0 72 20 72 64v82c-1 20 7 32 28 27v20c-31 9-61-2-59-35zM48-53c0 20 12 33 32 33 41-3 63-29 60-74-43 2-92-5-92 41" id="bk"/><g id="w"><use transform="matrix(0.05,0,0,0.05,0,0)" xlink:href="#aL"/><use transform="matrix(0.05,0,0,0.05,12.950000000000001,0)" xlink:href="#bd"/><use transform="matrix(0.05,0,0,0.05,22.950000000000003,0)" xlink:href="#bj"/><use transform="matrix(0.05,0,0,0.05,31.950000000000003,0)" xlink:href="#aN"/><use transform="matrix(0.05,0,0,0.05,41.95,0)" xlink:href="#aP"/><use transform="matrix(0.05,0,0,0.05,51.95,0)" xlink:href="#bj"/><use transform="matrix(0.05,0,0,0.05,60.95,0)" xlink:href="#ba"/><use transform="matrix(0.05,0,0,0.05,64.9,0)" xlink:href="#bf"/><use transform="matrix(0.05,0,0,0.05,68.85000000000001,0)" xlink:href="#ba"/><use transform="matrix(0.05,0,0,0.05,72.80000000000001,0)" xlink:href="#bk"/><use transform="matrix(0.05,0,0,0.05,82.80000000000001,0)" xlink:href="#bg"/><use transform="matrix(0.05,0,0,0.05,87.80000000000001,0)" xlink:href="#ba"/><use transform="matrix(0.05,0,0,0.05,91.75000000000001,0)" xlink:href="#aN"/><use transform="matrix(0.05,0,0,0.05,101.75000000000001,0)" xlink:href="#aP"/></g><path fill="#fff" d="M108 0H70L1-190h34L89-25l56-165h34" id="bl"/><g id="x"><use transform="matrix(0.05,0,0,0.05,0,0)" xlink:href="#aF"/><use transform="matrix(0.05,0,0,0.05,5.95,0)" xlink:href="#aw"/><use transform="matrix(0.05,0,0,0.05,15.949999999999998,0)" xlink:href="#aH"/><use transform="matrix(0.05,0,0,0.05,30.899999999999995,0)" xlink:href="#aG"/><use transform="matrix(0.05,0,0,0.05,40.9,0)" xlink:href="#bl"/><use transform="matrix(0.05,0,0,0.05,49.9,0)" xlink:href="#aw"/></g><path fill="#fff" d="M9 0v-24l116-142H16v-24h144v24L44-24h123V0H9" id="bm"/><g id="y"><use transform="matrix(0.05,0,0,0.05,0,0)" xlink:href="#aE"/><use transform="matrix(0.05,0,0,0.05,5,0)" xlink:href="#az"/><use transform="matrix(0.05,0,0,0.05,8.95,0)" xlink:href="#aA"/><use transform="matrix(0.05,0,0,0.05,18.95,0)" xlink:href="#aC"/><use transform="matrix(0.05,0,0,0.05,28.950000000000003,0)" xlink:href="#aZ"/><use transform="matrix(0.05,0,0,0.05,32.9,0)" xlink:href="#az"/><use transform="matrix(0.05,0,0,0.05,36.85,0)" xlink:href="#bm"/><use transform="matrix(0.05,0,0,0.05,45.85,0)" xlink:href="#aw"/><use transform="matrix(0.05,0,0,0.05,55.85,0)" xlink:href="#aF"/></g><path fill="#333" d="M146-102V0H94v-102L6-248h54l60 105 60-105h54" id="bn"/><path fill="#333" d="M24 0v-248h195v40H76v63h132v40H76v65h150V0H24" id="bo"/><path fill="#333" d="M169-182c-1-43-94-46-97-3 18 66 151 10 154 114 3 95-165 93-204 36-6-8-10-19-12-30l50-8c3 46 112 56 116 5-17-69-150-10-154-114-4-87 153-88 188-35 5 8 8 18 10 28" id="bp"/><g id="z"><use transform="matrix(0.04320987654320988,0,0,0.04320987654320988,0,0)" xlink:href="#bn"/><use transform="matrix(0.04320987654320988,0,0,0.04320987654320988,10.370370370370372,0)" xlink:href="#bo"/><use transform="matrix(0.04320987654320988,0,0,0.04320987654320988,20.740740740740744,0)" xlink:href="#bp"/></g><path fill="#333" d="M175 0L67-191c6 58 2 128 3 191H24v-248h59L193-55c-6-58-2-129-3-193h46V0h-61" id="bq"/><path fill="#333" d="M140-251c80 0 125 45 125 126S219 4 139 4C58 4 15-44 15-125s44-126 125-126zm-1 214c52 0 73-35 73-88 0-50-21-86-72-86-52 0-73 35-73 86s22 88 72 88" id="br"/><g id="A"><use transform="matrix(0.04320987654320988,0,0,0.04320987654320988,0,0)" xlink:href="#bq"/><use transform="matrix(0.04320987654320988,0,0,0.04320987654320988,11.19135802469136,0)" xlink:href="#br"/></g><path fill="#a9afb8" d="M186 0v-106H76V0H24v-248h52v99h110v-99h50V0h-50" id="bs"/><path fill="#a9afb8" d="M110-194c64 0 96 36 96 99 0 64-35 99-97 99-61 0-95-36-95-99 0-62 34-99 96-99zm-1 164c35 0 45-28 45-65 0-40-10-65-43-65-34 0-45 26-45 65 0 36 10 65 43 65" id="bt"/><g id="B"><use transform="matrix(0.0728395061728395,0,0,0.0728395061728395,0,0)" xlink:href="#bs"/><use transform="matrix(0.0728395061728395,0,0,0.0728395061728395,18.86543209876543,0)" xlink:href="#bt"/><use transform="matrix(0.0728395061728395,0,0,0.0728395061728395,34.81728395061728,0)" xlink:href="#bs"/></g><path fill="#a9afb8" d="M169-182c-1-43-94-46-97-3 18 66 151 10 154 114 3 95-165 93-204 36-6-8-10-19-12-30l50-8c3 46 112 56 116 5-17-69-150-10-154-114-4-87 153-88 188-35 5 8 8 18 10 28" id="bu"/><path fill="#a9afb8" d="M135-194c53 0 70 44 70 98 0 56-19 98-73 100-31 1-45-17-59-34 3 33 2 69 2 105H25l-1-265h48c2 10 0 23 3 31 11-24 29-35 60-35zM114-30c33 0 39-31 40-66 0-38-9-64-40-64-56 0-55 130 0 130" id="bv"/><path fill="#a9afb8" d="M185-48c-13 30-37 53-82 52C43 2 14-33 14-96s30-98 90-98c62 0 83 45 84 108H66c0 31 8 55 39 56 18 0 30-7 34-22zm-45-69c5-46-57-63-70-21-2 6-4 13-4 21h74" id="bw"/><path fill="#a9afb8" d="M190-63c-7 42-38 67-86 67-59 0-84-38-90-98-12-110 154-137 174-36l-49 2c-2-19-15-32-35-32-30 0-35 28-38 64-6 74 65 87 74 30" id="bx"/><g id="C"><use transform="matrix(0.0728395061728395,0,0,0.0728395061728395,0,0)" xlink:href="#bu"/><use transform="matrix(0.0728395061728395,0,0,0.0728395061728395,17.48148148148148,0)" xlink:href="#bv"/><use transform="matrix(0.0728395061728395,0,0,0.0728395061728395,33.43333333333333,0)" xlink:href="#bw"/><use transform="matrix(0.0728395061728395,0,0,0.0728395061728395,48.00123456790123,0)" xlink:href="#bx"/></g><path fill="#a9afb8" d="M123 10C108 53 80 86 19 72V37c35 8 53-11 59-39L3-190h52l48 148c12-52 28-100 44-148h51" id="by"/><path fill="#a9afb8" d="M135-194c87-1 58 113 63 194h-50c-7-57 23-157-34-157-59 0-34 97-39 157H25l-1-190h47c2 12-1 28 3 38 12-26 28-41 61-42" id="bz"/><g id="D"><use transform="matrix(0.0728395061728395,0,0,0.0728395061728395,0,0)" xlink:href="#bu"/><use transform="matrix(0.0728395061728395,0,0,0.0728395061728395,17.48148148148148,0)" xlink:href="#by"/><use transform="matrix(0.0728395061728395,0,0,0.0728395061728395,32.04938271604938,0)" xlink:href="#bz"/><use transform="matrix(0.0728395061728395,0,0,0.0728395061728395,48.00123456790123,0)" xlink:href="#bx"/></g><path fill="#a9afb8" d="M76-208v77h127v40H76V0H24v-248h183v40H76" id="bA"/><path fill="#a9afb8" d="M25 0v-261h50V0H25" id="bB"/><path fill="#a9afb8" d="M231 0h-52l-39-155L100 0H48L-1-190h46L77-45c9-52 24-97 36-145h53l37 145 32-145h46" id="bC"/><g id="E"><use transform="matrix(0.0728395061728395,0,0,0.0728395061728395,0,0)" xlink:href="#bA"/><use transform="matrix(0.0728395061728395,0,0,0.0728395061728395,15.95185185185185,0)" xlink:href="#bB"/><use transform="matrix(0.0728395061728395,0,0,0.0728395061728395,23.235802469135802,0)" xlink:href="#bt"/><use transform="matrix(0.0728395061728395,0,0,0.0728395061728395,39.187654320987654,0)" xlink:href="#bC"/></g><path fill="#a9afb8" d="M67-125c0 53 21 87 73 88 37 1 54-22 65-47l45 17C233-25 199 4 140 4 58 4 20-42 15-125 8-235 124-281 211-232c18 10 29 29 36 50l-46 12c-8-25-30-41-62-41-52 0-71 34-72 86" id="bD"/><path fill="#a9afb8" d="M114-157C55-157 80-60 75 0H25v-261h50l-1 109c12-26 28-41 61-42 86-1 58 113 63 194h-50c-7-57 23-157-34-157" id="bE"/><path fill="#a9afb8" d="M133-34C117-15 103 5 69 4 32 3 11-16 11-54c-1-60 55-63 116-61 1-26-3-47-28-47-18 1-26 9-28 27l-52-2c7-38 36-58 82-57s74 22 75 68l1 82c-1 14 12 18 25 15v27c-30 8-71 5-69-32zm-48 3c29 0 43-24 42-57-32 0-66-3-65 30 0 17 8 27 23 27" id="bF"/><path fill="#a9afb8" d="M135-150c-39-12-60 13-60 57V0H25l-1-190h47c2 13-1 29 3 40 6-28 27-53 61-41v41" id="bG"/><path fill="#a9afb8" d="M115-3C79 11 28 4 28-45v-112H4v-33h27l15-45h31v45h36v33H77v99c-1 23 16 31 38 25v30" id="bH"/><g id="F"><use transform="matrix(0.0728395061728395,0,0,0.0728395061728395,0,0)" xlink:href="#bD"/><use transform="matrix(0.0728395061728395,0,0,0.0728395061728395,18.86543209876543,0)" xlink:href="#bE"/><use transform="matrix(0.0728395061728395,0,0,0.0728395061728395,34.81728395061728,0)" xlink:href="#bF"/><use transform="matrix(0.0728395061728395,0,0,0.0728395061728395,49.38518518518518,0)" xlink:href="#bG"/><use transform="matrix(0.0728395061728395,0,0,0.0728395061728395,59.582716049382704,0)" xlink:href="#bH"/></g><path fill="#a9afb8" d="M137 0h-34L2-248h35l83 218 83-218h36" id="bI"/><path fill="#a9afb8" d="M141-36C126-15 110 5 73 4 37 3 15-17 15-53c-1-64 63-63 125-63 3-35-9-54-41-54-24 1-41 7-42 31l-33-3c5-37 33-52 76-52 45 0 72 20 72 64v82c-1 20 7 32 28 27v20c-31 9-61-2-59-35zM48-53c0 20 12 33 32 33 41-3 63-29 60-74-43 2-92-5-92 41" id="bJ"/><path fill="#a9afb8" d="M85-194c31 0 48 13 60 33l-1-100h32l1 261h-30c-2-10 0-23-3-31C134-8 116 4 85 4 32 4 16-35 15-94c0-66 23-100 70-100zm9 24c-40 0-46 34-46 75 0 40 6 74 45 74 42 0 51-32 51-76 0-42-9-74-50-73" id="bK"/><path fill="#a9afb8" d="M24-231v-30h32v30H24zM24 0v-190h32V0H24" id="bL"/><path fill="#a9afb8" d="M210-169c-67 3-38 105-44 169h-31v-121c0-29-5-50-35-48C34-165 62-65 56 0H25l-1-190h30c1 10-1 24 2 32 10-44 99-50 107 0 11-21 27-35 58-36 85-2 47 119 55 194h-31v-121c0-29-5-49-35-48" id="bM"/><g id="G"><use transform="matrix(0.04248971193415638,0,0,0.04248971193415638,0,0)" xlink:href="#bI"/><use transform="matrix(0.04248971193415638,0,0,0.04248971193415638,9.050308641975308,0)" xlink:href="#bJ"/><use transform="matrix(0.04248971193415638,0,0,0.04248971193415638,17.548251028806582,0)" xlink:href="#bK"/><use transform="matrix(0.04248971193415638,0,0,0.04248971193415638,26.04619341563786,0)" xlink:href="#bL"/><use transform="matrix(0.04248971193415638,0,0,0.04248971193415638,29.402880658436214,0)" xlink:href="#bM"/></g><path fill="#a9afb8" d="M30 0v-248h187v28H63v79h144v27H63v87h162V0H30" id="bN"/><path fill="#a9afb8" d="M135-143c-3-34-86-38-87 0 15 53 115 12 119 90S17 21 10-45l28-5c4 36 97 45 98 0-10-56-113-15-118-90-4-57 82-63 122-42 12 7 21 19 24 35" id="bO"/><path fill="#a9afb8" d="M100-194c63 0 86 42 84 106H49c0 40 14 67 53 68 26 1 43-12 49-29l28 8c-11 28-37 45-77 45C44 4 14-33 15-96c1-61 26-98 85-98zm52 81c6-60-76-77-97-28-3 7-6 17-6 28h103" id="bP"/><path fill="#a9afb8" d="M117-194c89-4 53 116 60 194h-32v-121c0-31-8-49-39-48C34-167 62-67 57 0H25l-1-190h30c1 10-1 24 2 32 11-22 29-35 61-36" id="bQ"/><path fill="#a9afb8" d="M115-194c53 0 69 39 70 98 0 66-23 100-70 100C84 3 66-7 56-30L54 0H23l1-261h32v101c10-23 28-34 59-34zm-8 174c40 0 45-34 45-75 0-40-5-75-45-74-42 0-51 32-51 76 0 43 10 73 51 73" id="bR"/><path fill="#a9afb8" d="M114-163C36-179 61-72 57 0H25l-1-190h30c1 12-1 29 2 39 6-27 23-49 58-41v29" id="bS"/><path fill="#a9afb8" d="M177-190C167-65 218 103 67 71c-23-6-38-20-44-43l32-5c15 47 100 32 89-28v-30C133-14 115 1 83 1 29 1 15-40 15-95c0-56 16-97 71-98 29-1 48 16 59 35 1-10 0-23 2-32h30zM94-22c36 0 50-32 50-73 0-42-14-75-50-75-39 0-46 34-46 75s6 73 46 73" id="bT"/><g id="H"><use transform="matrix(0.04248971193415638,0,0,0.04248971193415638,0,0)" xlink:href="#bN"/><use transform="matrix(0.04248971193415638,0,0,0.04248971193415638,10.19753086419753,0)" xlink:href="#bL"/><use transform="matrix(0.04248971193415638,0,0,0.04248971193415638,13.554218106995881,0)" xlink:href="#bO"/><use transform="matrix(0.04248971193415638,0,0,0.04248971193415638,21.20236625514403,0)" xlink:href="#bP"/><use transform="matrix(0.04248971193415638,0,0,0.04248971193415638,29.7003086419753,0)" xlink:href="#bQ"/><use transform="matrix(0.04248971193415638,0,0,0.04248971193415638,38.19825102880658,0)" xlink:href="#bR"/><use transform="matrix(0.04248971193415638,0,0,0.04248971193415638,46.69619341563786,0)" xlink:href="#bP"/><use transform="matrix(0.04248971193415638,0,0,0.04248971193415638,55.194135802469134,0)" xlink:href="#bS"/><use transform="matrix(0.04248971193415638,0,0,0.04248971193415638,60.25041152263374,0)" xlink:href="#bT"/></g><path fill="#a9afb8" d="M32 76v-337h29V76H32" id="bU"/><use transform="matrix(0.04248971193415638,0,0,0.04248971193415638,0,0)" xlink:href="#bU" id="I"/><path fill="#a9afb8" d="M240 0l2-218c-23 76-54 145-80 218h-23L58-218 59 0H30v-248h44l77 211c21-75 51-140 76-211h43V0h-30" id="bV"/><path fill="#a9afb8" d="M96-169c-40 0-48 33-48 73s9 75 48 75c24 0 41-14 43-38l32 2c-6 37-31 61-74 61-59 0-76-41-82-99-10-93 101-131 147-64 4 7 5 14 7 22l-32 3c-4-21-16-35-41-35" id="bW"/><path fill="#a9afb8" d="M106-169C34-169 62-67 57 0H25v-261h32l-1 103c12-21 28-36 61-36 89 0 53 116 60 194h-32v-121c2-32-8-49-39-48" id="bX"/><g id="J"><use transform="matrix(0.04248971193415638,0,0,0.04248971193415638,0,0)" xlink:href="#bV"/><use transform="matrix(0.04248971193415638,0,0,0.04248971193415638,12.704423868312757,0)" xlink:href="#bJ"/><use transform="matrix(0.04248971193415638,0,0,0.04248971193415638,21.20236625514403,0)" xlink:href="#bS"/><use transform="matrix(0.04248971193415638,0,0,0.04248971193415638,26.25864197530864,0)" xlink:href="#bW"/><use transform="matrix(0.04248971193415638,0,0,0.04248971193415638,33.90679012345679,0)" xlink:href="#bX"/></g><path fill="#a9afb8" d="M27 0v-27h64v-190l-56 39v-29l58-41h29v221h61V0H27" id="bY"/><path fill="#a9afb8" d="M68-38c1 34 0 65-14 84H32c9-13 17-26 17-46H33v-38h35" id="bZ"/><g id="K"><use transform="matrix(0.04248971193415638,0,0,0.04248971193415638,0,0)" xlink:href="#bY"/><use transform="matrix(0.04248971193415638,0,0,0.04248971193415638,8.497942386831275,0)" xlink:href="#bZ"/></g><path fill="#a9afb8" d="M101-251c82-7 93 87 43 132L82-64C71-53 59-42 53-27h129V0H18c2-99 128-94 128-182 0-28-16-43-45-43s-46 15-49 41l-32-3c6-41 34-60 81-64" id="ca"/><path fill="#a9afb8" d="M101-251c68 0 85 55 85 127S166 4 100 4C33 4 14-52 14-124c0-73 17-127 87-127zm-1 229c47 0 54-49 54-102s-4-102-53-102c-51 0-55 48-55 102 0 53 5 102 54 102" id="cb"/><g id="L"><use transform="matrix(0.04248971193415638,0,0,0.04248971193415638,0,0)" xlink:href="#ca"/><use transform="matrix(0.04248971193415638,0,0,0.04248971193415638,8.497942386831275,0)" xlink:href="#cb"/><use transform="matrix(0.04248971193415638,0,0,0.04248971193415638,16.99588477366255,0)" xlink:href="#ca"/><use transform="matrix(0.04248971193415638,0,0,0.04248971193415638,25.493827160493822,0)" xlink:href="#ca"/></g><g id="M"><use transform="matrix(0.05,0,0,0.05,0,0)" xlink:href="#aC"/><use transform="matrix(0.05,0,0,0.05,10,0)" xlink:href="#aV"/><use transform="matrix(0.05,0,0,0.05,20,0)" xlink:href="#aV"/></g><g id="N"><use transform="matrix(0.05,0,0,0.05,0,0)" xlink:href="#aX"/><use transform="matrix(0.05,0,0,0.05,12.950000000000001,0)" xlink:href="#aY"/></g><g id="O"><use transform="matrix(0.05,0,0,0.05,0,0)" xlink:href="#ba"/><use transform="matrix(0.05,0,0,0.05,3.95,0)" xlink:href="#aP"/><use transform="matrix(0.05,0,0,0.05,13.949999999999998,0)" xlink:href="#bb"/><use transform="matrix(0.05,0,0,0.05,22.95,0)" xlink:href="#bg"/><use transform="matrix(0.05,0,0,0.05,27.950000000000003,0)" xlink:href="#bk"/><use transform="matrix(0.05,0,0,0.05,37.95,0)" xlink:href="#aP"/><use transform="matrix(0.05,0,0,0.05,47.95,0)" xlink:href="#bj"/><use transform="matrix(0.05,0,0,0.05,56.95,0)" xlink:href="#bd"/></g><g id="P"><use transform="matrix(0.05,0,0,0.05,0,0)" xlink:href="#az"/><use transform="matrix(0.05,0,0,0.05,3.95,0)" xlink:href="#aA"/><use transform="matrix(0.05,0,0,0.05,13.949999999999998,0)" xlink:href="#aB"/><use transform="matrix(0.05,0,0,0.05,22.95,0)" xlink:href="#aw"/><use transform="matrix(0.05,0,0,0.05,32.95,0)" xlink:href="#aF"/><use transform="matrix(0.05,0,0,0.05,38.900000000000006,0)" xlink:href="#ax"/></g><g id="Q"><use transform="matrix(0.05,0,0,0.05,0,0)" xlink:href="#az"/><use transform="matrix(0.05,0,0,0.05,3.95,0)" xlink:href="#aA"/><use transform="matrix(0.05,0,0,0.05,13.949999999999998,0)" xlink:href="#aB"/><use transform="matrix(0.05,0,0,0.05,22.95,0)" xlink:href="#ax"/><use transform="matrix(0.05,0,0,0.05,27.950000000000003,0)" xlink:href="#aC"/><use transform="matrix(0.05,0,0,0.05,37.95,0)" xlink:href="#aA"/><use transform="matrix(0.05,0,0,0.05,47.95,0)" xlink:href="#aD"/><use transform="matrix(0.05,0,0,0.05,56.95,0)" xlink:href="#aw"/></g><g id="R"><use transform="matrix(0.05,0,0,0.05,0,0)" xlink:href="#az"/><use transform="matrix(0.05,0,0,0.05,3.95,0)" xlink:href="#aA"/><use transform="matrix(0.05,0,0,0.05,13.949999999999998,0)" xlink:href="#ax"/><use transform="matrix(0.05,0,0,0.05,18.95,0)" xlink:href="#aG"/></g><g id="S"><use transform="matrix(0.05,0,0,0.05,0,0)" xlink:href="#aD"/><use transform="matrix(0.05,0,0,0.05,9,0)" xlink:href="#aG"/><use transform="matrix(0.05,0,0,0.05,19,0)" xlink:href="#aH"/><use transform="matrix(0.05,0,0,0.05,33.95,0)" xlink:href="#aU"/><use transform="matrix(0.05,0,0,0.05,43.95,0)" xlink:href="#aC"/><use transform="matrix(0.05,0,0,0.05,53.95,0)" xlink:href="#aF"/><use transform="matrix(0.05,0,0,0.05,59.900000000000006,0)" xlink:href="#aw"/></g><g id="T"><use transform="matrix(0.05,0,0,0.05,0,0)" xlink:href="#aI"/><use transform="matrix(0.05,0,0,0.05,12.950000000000001,0)" xlink:href="#aJ"/></g><g id="U"><use transform="matrix(0.05,0,0,0.05,0,0)" xlink:href="#aW"/><use transform="matrix(0.05,0,0,0.05,12.950000000000001,0)" xlink:href="#az"/><use transform="matrix(0.05,0,0,0.05,16.900000000000002,0)" xlink:href="#ax"/><use transform="matrix(0.05,0,0,0.05,21.900000000000002,0)" xlink:href="#ay"/></g><g id="V"><use transform="matrix(0.05,0,0,0.05,0,0)" xlink:href="#az"/><use transform="matrix(0.05,0,0,0.05,3.95,0)" xlink:href="#aA"/></g><path fill="#333" d="M137-103V0h-34v-103L8-248h37l75 118 75-118h37" id="cc"/><g id="W"><use transform="matrix(0.05,0,0,0.05,0,0)" xlink:href="#cc"/><use transform="matrix(0.05,0,0,0.05,10.35,0)" xlink:href="#bd"/><use transform="matrix(0.05,0,0,0.05,20.35,0)" xlink:href="#bb"/></g><path fill="#333" d="M106-169C34-169 62-67 57 0H25v-261h32l-1 103c12-21 28-36 61-36 89 0 53 116 60 194h-32v-121c2-32-8-49-39-48" id="cd"/><g id="X"><use transform="matrix(0.05,0,0,0.05,0,0)" xlink:href="#bg"/><use transform="matrix(0.05,0,0,0.05,5,0)" xlink:href="#cd"/><use transform="matrix(0.05,0,0,0.05,15,0)" xlink:href="#bd"/></g><g id="Y"><use transform="matrix(0.05,0,0,0.05,0,0)" xlink:href="#ba"/><use transform="matrix(0.05,0,0,0.05,3.95,0)" xlink:href="#aP"/><use transform="matrix(0.05,0,0,0.05,13.949999999999998,0)" xlink:href="#bb"/><use transform="matrix(0.05,0,0,0.05,22.95,0)" xlink:href="#bg"/><use transform="matrix(0.05,0,0,0.05,27.950000000000003,0)" xlink:href="#bk"/><use transform="matrix(0.05,0,0,0.05,37.95,0)" xlink:href="#bj"/><use transform="matrix(0.05,0,0,0.05,46.95,0)" xlink:href="#bd"/></g><g id="Z"><use transform="matrix(0.05,0,0,0.05,0,0)" xlink:href="#ba"/><use transform="matrix(0.05,0,0,0.05,3.95,0)" xlink:href="#aP"/></g><g id="aa"><use transform="matrix(0.05,0,0,0.05,0,0)" xlink:href="#ba"/><use transform="matrix(0.05,0,0,0.05,3.95,0)" xlink:href="#bb"/></g><path fill="#333" d="M145-31C134-9 116 4 85 4 32 4 16-35 15-94c0-59 17-99 70-100 32-1 48 14 60 33 0-11-1-24 2-32h30l-1 268h-32zM93-21c41 0 51-33 51-76s-8-73-50-73c-40 0-46 35-46 75s5 74 45 74" id="ce"/><g id="ab"><use transform="matrix(0.05,0,0,0.05,0,0)" xlink:href="#bd"/><use transform="matrix(0.05,0,0,0.05,10,0)" xlink:href="#ce"/><use transform="matrix(0.05,0,0,0.05,20,0)" xlink:href="#aO"/><use transform="matrix(0.05,0,0,0.05,30,0)" xlink:href="#bk"/><use transform="matrix(0.05,0,0,0.05,40,0)" xlink:href="#bf"/></g><g id="ac"><use transform="matrix(0.05,0,0,0.05,0,0)" xlink:href="#bg"/><use transform="matrix(0.05,0,0,0.05,5,0)" xlink:href="#aN"/></g><g id="ad"><use transform="matrix(0.05,0,0,0.05,0,0)" xlink:href="#bg"/><use transform="matrix(0.05,0,0,0.05,5,0)" xlink:href="#cd"/><use transform="matrix(0.05,0,0,0.05,15,0)" xlink:href="#bd"/></g><g id="ae"><use transform="matrix(0.05,0,0,0.05,0,0)" xlink:href="#ba"/><use transform="matrix(0.05,0,0,0.05,3.95,0)" xlink:href="#aP"/><use transform="matrix(0.05,0,0,0.05,13.949999999999998,0)" xlink:href="#bb"/><use transform="matrix(0.05,0,0,0.05,22.95,0)" xlink:href="#bg"/><use transform="matrix(0.05,0,0,0.05,27.950000000000003,0)" xlink:href="#bk"/><use transform="matrix(0.05,0,0,0.05,37.95,0)" xlink:href="#aP"/><use transform="matrix(0.05,0,0,0.05,47.95,0)" xlink:href="#bj"/><use transform="matrix(0.05,0,0,0.05,56.95,0)" xlink:href="#bd"/></g><path fill="#333" d="M30-248c118-7 216 8 213 122C240-48 200 0 122 0H30v-248zM63-27c89 8 146-16 146-99s-60-101-146-95v194" id="cf"/><path fill="#333" d="M160-131c35 5 61 23 61 61C221 17 115-2 30 0v-248c76 3 177-17 177 60 0 33-19 50-47 57zm-97-11c50-1 110 9 110-42 0-47-63-36-110-37v79zm0 115c55-2 124 14 124-45 0-56-70-42-124-44v89" id="cg"/><g id="af"><use transform="matrix(0.05,0,0,0.05,0,0)" xlink:href="#cf"/><use transform="matrix(0.05,0,0,0.05,12.950000000000001,0)" xlink:href="#cg"/><use transform="matrix(0.05,0,0,0.05,24.950000000000003,0)" xlink:href="#aR"/></g><path fill="#fff" d="M84 4C-5 8 30-112 23-190h32v120c0 31 7 50 39 49 72-2 45-101 50-169h31l1 190h-30c-1-10 1-25-2-33-11 22-28 36-60 37" id="ch"/><g id="ag"><use transform="matrix(0.05,0,0,0.05,0,0)" xlink:href="#ch"/><use transform="matrix(0.05,0,0,0.05,10,0)" xlink:href="#aU"/><use transform="matrix(0.05,0,0,0.05,20,0)" xlink:href="#aV"/><use transform="matrix(0.05,0,0,0.05,30,0)" xlink:href="#aC"/><use transform="matrix(0.05,0,0,0.05,40,0)" xlink:href="#ax"/><use transform="matrix(0.05,0,0,0.05,45,0)" xlink:href="#aw"/></g><g id="ah"><use transform="matrix(0.05,0,0,0.05,0,0)" xlink:href="#az"/><use transform="matrix(0.05,0,0,0.05,3.95,0)" xlink:href="#aA"/></g><g id="ai"><use transform="matrix(0.05,0,0,0.05,0,0)" xlink:href="#aD"/><use transform="matrix(0.05,0,0,0.05,9,0)" xlink:href="#aZ"/><use transform="matrix(0.05,0,0,0.05,12.949999999999998,0)" xlink:href="#aw"/><use transform="matrix(0.05,0,0,0.05,22.95,0)" xlink:href="#aC"/><use transform="matrix(0.05,0,0,0.05,32.95,0)" xlink:href="#aA"/></g><g id="aj"><use transform="matrix(0.05,0,0,0.05,0,0)" xlink:href="#az"/><use transform="matrix(0.05,0,0,0.05,3.95,0)" xlink:href="#aA"/><use transform="matrix(0.05,0,0,0.05,13.949999999999998,0)" xlink:href="#aB"/><use transform="matrix(0.05,0,0,0.05,22.95,0)" xlink:href="#ax"/><use transform="matrix(0.05,0,0,0.05,27.950000000000003,0)" xlink:href="#aC"/><use transform="matrix(0.05,0,0,0.05,37.95,0)" xlink:href="#aA"/><use transform="matrix(0.05,0,0,0.05,47.95,0)" xlink:href="#aD"/><use transform="matrix(0.05,0,0,0.05,56.95,0)" xlink:href="#aw"/></g></defs></g></svg>