<svg xmlns="http://www.w3.org/2000/svg" xmlns:xlink="http://www.w3.org/1999/xlink" xmlns:lucid="lucid" width="1648.55" height="857.71"><g transform="translate(0 0)" lucid:page-tab-id="0_0"><path d="M1024 86h558c4.42 0 8 3.58 8 8v418c0 4.42-3.58 8-8 8H68c-4.42 0-8-3.58-8-8V68c0-4.42 3.58-8 8-8h902c4.42 0 11.12 1.76 14.96 3.94zM60 86h964" stroke="#333" fill="#fff"/><use xlink:href="#a" transform="matrix(1,0,0,1,68,60) translate(412 16.6)"/><use xlink:href="#b" transform="matrix(1,0,0,1,72,94) translate(0 14.4)"/><path d="M680 108c0-4.42 3.58-8 8-8h284c4.42 0 8 3.58 8 8v64c0 4.42-3.58 8-8 8H688c-4.42 0-8-3.58-8-8z" stroke="#333" fill="#fff"/><use xlink:href="#c" transform="matrix(1,0,0,1,680,100) translate(29.985468750000003 45.296875)"/><path d="M120 248c0-4.42 3.58-8 8-8h284c4.42 0 8 3.58 8 8v64c0 4.42-3.58 8-8 8H128c-4.42 0-8-3.58-8-8z" stroke="#333" fill="#fff"/><use xlink:href="#d" transform="matrix(1,0,0,1,120,240) translate(49.18859375 45.296875)"/><path d="M500 248c0-4.42 3.58-8 8-8h284c4.42 0 8 3.58 8 8v64c0 4.42-3.58 8-8 8H508c-4.42 0-8-3.58-8-8z" stroke="#333" fill="#fff"/><use xlink:href="#e" transform="matrix(1,0,0,1,500,240) translate(15.583125000000004 45.296875)"/><path d="M860 248c0-4.42 3.58-8 8-8h304c4.42 0 8 3.58 8 8v64c0 4.42-3.58 8-8 8H868c-4.42 0-8-3.58-8-8z" stroke="#333" fill="#fff"/><use xlink:href="#f" transform="matrix(1,0,0,1,860,240) translate(11.180781250000004 45.296875)"/><path d="M1220 248c0-4.42 3.58-8 8-8h284c4.42 0 8 3.58 8 8v64c0 4.42-3.58 8-8 8h-284c-4.42 0-8-3.58-8-8z" stroke="#333" fill="#fff"/><use xlink:href="#g" transform="matrix(1,0,0,1,1220,240) translate(5.981562500000004 45.296875)"/><path d="M680 408c0-4.42 3.58-8 8-8h284c4.42 0 8 3.58 8 8v64c0 4.42-3.58 8-8 8H688c-4.42 0-8-3.58-8-8z" stroke="#333" fill="#fff"/><use xlink:href="#h" transform="matrix(1,0,0,1,680,400) translate(73.19250000000001 45.296875)"/><path d="M650 239v-17c0-6.63 5.37-12 12-12h156c6.63 0 12-5.37 12-12v-1.12" stroke="#333" fill="none"/><path d="M650.5 239.5h-1v-.5h1z" stroke="#333" stroke-width=".05" fill="#333"/><path d="M830 182.12l4.64 14.26h-9.28z" stroke="#333" fill="#333"/><path d="M270 239v-17c0-6.63 5.37-12 12-12h536c6.63 0 12-5.37 12-12v-1.12" stroke="#333" fill="none"/><path d="M270.5 239.5h-1v-.5h1z" stroke="#333" stroke-width=".05" fill="#333"/><path d="M830 182.12l4.64 14.26h-9.28z" stroke="#333" fill="#333"/><path d="M1020 239v-17c0-6.63-5.37-12-12-12H842c-6.63 0-12-5.37-12-12v-1.12" stroke="#333" fill="none"/><path d="M1020.5 239.5h-1v-.5h1z" stroke="#333" stroke-width=".05" fill="#333"/><path d="M830 182.12l4.64 14.26h-9.28z" stroke="#333" fill="#333"/><path d="M1370 239v-17c0-6.63-5.37-12-12-12H842c-6.63 0-12-5.37-12-12v-1.12" stroke="#333" fill="none"/><path d="M1370.5 239.5h-1v-.5h1z" stroke="#333" stroke-width=".05" fill="#333"/><path d="M830 182.12l4.64 14.26h-9.28z" stroke="#333" fill="#333"/><path d="M830 399v-27c0-6.63-5.37-12-12-12H282c-6.63 0-12-5.37-12-12v-11.12" stroke="#333" fill="none"/><path d="M830.5 399.5h-1v-.5h1z" stroke="#333" stroke-width=".05" fill="#333"/><path d="M270 322.12l4.64 14.26h-9.28z" stroke="#333" fill="#333"/><path d="M830 399v-27c0-6.63-5.37-12-12-12H662c-6.63 0-12-5.37-12-12v-11.12" stroke="#333" fill="none"/><path d="M830.5 399.5h-1v-.5h1z" stroke="#333" stroke-width=".05" fill="#333"/><path d="M650 322.12l4.64 14.26h-9.28z" stroke="#333" fill="#333"/><path d="M830 399v-27c0-6.63 5.37-12 12-12h166c6.63 0 12-5.37 12-12v-11.12" stroke="#333" fill="none"/><path d="M830.5 399.5h-1v-.5h1z" stroke="#333" stroke-width=".05" fill="#333"/><path d="M1020 322.12l4.64 14.26h-9.28z" stroke="#333" fill="#333"/><path d="M830 399v-27c0-6.63 5.37-12 12-12h516c6.63 0 12-5.37 12-12v-11.12" stroke="#333" fill="none"/><path d="M830.5 399.5h-1v-.5h1z" stroke="#333" stroke-width=".05" fill="#333"/><path d="M1370 322.12l4.64 14.26h-9.28z" stroke="#333" fill="#333"/><path d="M1018 626h554c4.42 0 8 3.58 8 8v158c0 4.42-3.58 8-8 8H68c-4.42 0-8-3.58-8-8V608c0-4.42 3.58-8 8-8h896c4.42 0 11.12 1.76 14.96 3.94zm-958 0h958" stroke="#333" fill="#fff"/><use xlink:href="#a" transform="matrix(1,0,0,1,68,600) translate(409 16.6)"/><use xlink:href="#i" transform="matrix(1,0,0,1,72,634) translate(0 14.4)"/><path d="M680 668c0-4.42 3.58-8 8-8h284c4.42 0 8 3.58 8 8v64c0 4.42-3.58 8-8 8H688c-4.42 0-8-3.58-8-8z" stroke="#333" fill="#fff"/><use xlink:href="#j" transform="matrix(1,0,0,1,680,660) translate(121.20031250000001 45.296875)"/><path d="M830 659V496.88" stroke="#333" fill="none"/><path d="M830.5 659.5h-1v-.5h1z" stroke="#333" stroke-width=".05" fill="#333"/><path d="M830 482.12l4.64 14.26h-9.28z" stroke="#333" fill="#333"/><path d="M1060 408c0-4.42 3.58-8 8-8h284c4.42 0 8 3.58 8 8v64c0 4.42-3.58 8-8 8h-284c-4.42 0-8-3.58-8-8z" stroke="#333" fill="#fff"/><use xlink:href="#k" transform="matrix(1,0,0,1,1060,400) translate(87.59484375000001 45.296875)"/><path d="M830 659v-97c0-6.63 5.37-12 12-12h356c6.63 0 12-5.37 12-12v-41.12" stroke="#333" fill="none"/><path d="M830.5 659.5h-1v-.5h1z" stroke="#333" stroke-width=".05" fill="#333"/><path d="M1210 482.12l4.64 14.26h-9.28z" stroke="#333" fill="#333"/><defs><path fill="#333" d="M30-248c87 1 191-15 191 75 0 78-77 80-158 76V0H30v-248zm33 125c57 0 124 11 124-50 0-59-68-47-124-48v98" id="l"/><path fill="#333" d="M141-36C126-15 110 5 73 4 37 3 15-17 15-53c-1-64 63-63 125-63 3-35-9-54-41-54-24 1-41 7-42 31l-33-3c5-37 33-52 76-52 45 0 72 20 72 64v82c-1 20 7 32 28 27v20c-31 9-61-2-59-35zM48-53c0 20 12 33 32 33 41-3 63-29 60-74-43 2-92-5-92 41" id="m"/><path fill="#333" d="M96-169c-40 0-48 33-48 73s9 75 48 75c24 0 41-14 43-38l32 2c-6 37-31 61-74 61-59 0-76-41-82-99-10-93 101-131 147-64 4 7 5 14 7 22l-32 3c-4-21-16-35-41-35" id="n"/><path fill="#333" d="M143 0L79-87 56-68V0H24v-261h32v163l83-92h37l-77 82L181 0h-38" id="o"/><path fill="#333" d="M177-190C167-65 218 103 67 71c-23-6-38-20-44-43l32-5c15 47 100 32 89-28v-30C133-14 115 1 83 1 29 1 15-40 15-95c0-56 16-97 71-98 29-1 48 16 59 35 1-10 0-23 2-32h30zM94-22c36 0 50-32 50-73 0-42-14-75-50-75-39 0-46 34-46 75s6 73 46 73" id="p"/><path fill="#333" d="M100-194c63 0 86 42 84 106H49c0 40 14 67 53 68 26 1 43-12 49-29l28 8c-11 28-37 45-77 45C44 4 14-33 15-96c1-61 26-98 85-98zm52 81c6-60-76-77-97-28-3 7-6 17-6 28h103" id="q"/><g id="a"><use transform="matrix(0.05,0,0,0.05,0,0)" xlink:href="#l"/><use transform="matrix(0.05,0,0,0.05,12,0)" xlink:href="#m"/><use transform="matrix(0.05,0,0,0.05,22,0)" xlink:href="#n"/><use transform="matrix(0.05,0,0,0.05,31,0)" xlink:href="#o"/><use transform="matrix(0.05,0,0,0.05,40,0)" xlink:href="#m"/><use transform="matrix(0.05,0,0,0.05,50,0)" xlink:href="#p"/><use transform="matrix(0.05,0,0,0.05,60,0)" xlink:href="#q"/></g><path fill="#333" d="M100-194c62-1 85 37 85 99 1 63-27 99-86 99S16-35 15-95c0-66 28-99 85-99zM99-20c44 1 53-31 53-75 0-43-8-75-51-75s-53 32-53 75 10 74 51 75" id="r"/><path fill="#333" d="M117-194c89-4 53 116 60 194h-32v-121c0-31-8-49-39-48C34-167 62-67 57 0H25l-1-190h30c1 10-1 24 2 32 11-22 29-35 61-36" id="s"/><path fill="#333" d="M59-47c-2 24 18 29 38 22v24C64 9 27 4 27-40v-127H5v-23h24l9-43h21v43h35v23H59v120" id="t"/><path fill="#333" d="M114-163C36-179 61-72 57 0H25l-1-190h30c1 12-1 29 2 39 6-27 23-49 58-41v29" id="u"/><path fill="#333" d="M24 0v-261h32V0H24" id="v"/><g id="b"><use transform="matrix(0.05,0,0,0.05,0,0)" xlink:href="#n"/><use transform="matrix(0.05,0,0,0.05,9,0)" xlink:href="#r"/><use transform="matrix(0.05,0,0,0.05,19,0)" xlink:href="#s"/><use transform="matrix(0.05,0,0,0.05,29,0)" xlink:href="#t"/><use transform="matrix(0.05,0,0,0.05,34,0)" xlink:href="#u"/><use transform="matrix(0.05,0,0,0.05,39.95,0)" xlink:href="#r"/><use transform="matrix(0.05,0,0,0.05,49.95,0)" xlink:href="#v"/><use transform="matrix(0.05,0,0,0.05,53.900000000000006,0)" xlink:href="#v"/><use transform="matrix(0.05,0,0,0.05,57.85,0)" xlink:href="#q"/><use transform="matrix(0.05,0,0,0.05,67.85000000000001,0)" xlink:href="#u"/></g><path fill="#24292f" d="M1048-32c-2 300-135 456-433 456-222-1-358-88-400-267l184-25c22 99 100 157 222 156 184-2 248-125 248-315 0-64 3-133-2-194C807-100 706-13 524-12c-306 0-381-228-381-537 0-318 85-550 400-550 164 0 271 83 325 202h3c1-60 3-134 12-185h171c-13 339-4 702-6 1050zM585-145c210-8 284-178 284-406 0-192-52-331-177-392-33-16-69-22-104-22-223 2-259 184-259 414 0 229 31 415 256 406" id="w"/><path fill="#24292f" d="M617-1102c355 0 481 238 477 599H322c5 222 84 388 301 388 144 0 244-59 284-166l158 45C1002-72 854 20 623 20c-342 0-490-220-490-568 0-346 151-554 484-554zm291 461c-18-192-90-328-289-328-194 0-287 128-295 328h584" id="x"/><path fill="#24292f" d="M706-1102c241 0 344 136 343 381V0H868v-695c1-168-57-273-220-268-190 6-283 138-283 336V0H185c-3-360 6-732-6-1082h170c4 54 7 126 8 185h3c63-121 164-204 346-205" id="y"/><path fill="#24292f" d="M839-1102c70 0 148 7 206 17v167c-112-18-268-36-363 15-129 69-208 203-208 395V0H294c-10-367 32-789-52-1082h171c21 75 41 161 48 250h5c67-152 152-270 373-270" id="z"/><path fill="#24292f" d="M745-142h380V0H143v-142h422v-798H246v-142h499v940zM545-1292v-192h200v192H545" id="A"/><path fill="#24292f" d="M631 20c-350 0-501-215-501-562 0-355 162-560 502-560 250 0 399 118 446 323l-192 14c-23-124-109-196-262-196-242 0-305 171-305 415 1 245 61 427 304 427 151 0 248-77 267-215l190 12C1039-107 883 20 631 20" id="B"/><path fill="#24292f" d="M614-1226c-167 1-283 53-283 213 0 183 186 193 334 234 230 63 463 120 463 409 0 286-219 387-518 390C309 23 131-98 79-338l185-37c34 165 149 248 351 246 184-2 324-58 324-238 0-203-207-221-372-266-210-57-422-111-422-377 0-267 201-356 470-360 279-5 430 101 480 324l-188 33c-28-141-121-215-293-213" id="C"/><path fill="#24292f" d="M698-1104c312 3 392 244 392 558 0 315-82 566-392 566-169 0-277-65-331-184h-5c8 188 2 394 4 589H185V-858c0-76-1-156-6-224h175c6 52 9 120 10 178h4c58-122 150-202 330-200zm-49 991c225 0 255-203 255-433 0-225-32-419-253-419-236 0-285 192-285 441 0 237 53 411 283 411" id="D"/><path fill="#24292f" d="M709-1193V0H519v-1193H76v-156h1076v156H709" id="E"/><path fill="#24292f" d="M615-1102c343 0 484 203 482 560-1 347-147 562-488 562-336 0-475-219-479-562-4-349 156-560 485-560zm-8 989c240 0 301-180 301-429 0-245-55-427-290-427-236 0-299 181-299 427 0 243 61 429 288 429" id="F"/><path fill="#24292f" d="M473-1349c438-1 655 221 652 661C1122-268 945-8 532 0H162v-1349h311zm42 1193c308-4 416-205 418-532 2-330-131-509-459-505H353v1037h162" id="G"/><path fill="#24292f" d="M802-711c201 25 350 118 350 331C1152-95 921 0 634 0H162v-1349c401 9 908-74 908 327 0 184-111 275-268 311zm-224-69c174-2 300-51 300-218 0-163-124-198-302-198H353v416h225zM353-153c281-2 612 44 606-244-5-271-329-233-606-234v478" id="H"/><path fill="#24292f" d="M1121-976c0 225-142 341-344 379L1177 0H957L591-575H353V0H162v-1349h482c281 3 477 100 477 373zM633-726c181-1 296-73 296-247 0-149-101-223-304-223H353v470h280" id="I"/><path fill="#24292f" d="M736-142h380V0H134v-142h422v-1200H267v-142h469v1342" id="J"/><g id="c"><use transform="matrix(0.0078125,0,0,0.0078125,0,0)" xlink:href="#w"/><use transform="matrix(0.0078125,0,0,0.0078125,9.6015625,0)" xlink:href="#x"/><use transform="matrix(0.0078125,0,0,0.0078125,19.203125,0)" xlink:href="#y"/><use transform="matrix(0.0078125,0,0,0.0078125,28.8046875,0)" xlink:href="#x"/><use transform="matrix(0.0078125,0,0,0.0078125,38.40625,0)" xlink:href="#z"/><use transform="matrix(0.0078125,0,0,0.0078125,48.0078125,0)" xlink:href="#A"/><use transform="matrix(0.0078125,0,0,0.0078125,57.609375,0)" xlink:href="#B"/><use transform="matrix(0.0078125,0,0,0.0078125,67.2109375,0)" xlink:href="#C"/><use transform="matrix(0.0078125,0,0,0.0078125,76.8125,0)" xlink:href="#D"/><use transform="matrix(0.0078125,0,0,0.0078125,86.4140625,0)" xlink:href="#x"/><use transform="matrix(0.0078125,0,0,0.0078125,96.015625,0)" xlink:href="#B"/><use transform="matrix(0.0078125,0,0,0.0078125,105.6171875,0)" xlink:href="#E"/><use transform="matrix(0.0078125,0,0,0.0078125,115.21875,0)" xlink:href="#F"/><use transform="matrix(0.0078125,0,0,0.0078125,124.8203125,0)" xlink:href="#G"/><use transform="matrix(0.0078125,0,0,0.0078125,134.421875,0)" xlink:href="#H"/><use transform="matrix(0.0078125,0,0,0.0078125,144.0234375,0)" xlink:href="#I"/><use transform="matrix(0.0078125,0,0,0.0078125,153.625,0)" xlink:href="#x"/><use transform="matrix(0.0078125,0,0,0.0078125,163.2265625,0)" xlink:href="#B"/><use transform="matrix(0.0078125,0,0,0.0078125,172.828125,0)" xlink:href="#F"/><use transform="matrix(0.0078125,0,0,0.0078125,182.4296875,0)" xlink:href="#y"/><use transform="matrix(0.0078125,0,0,0.0078125,192.03125,0)" xlink:href="#B"/><use transform="matrix(0.0078125,0,0,0.0078125,201.6328125,0)" xlink:href="#A"/><use transform="matrix(0.0078125,0,0,0.0078125,211.234375,0)" xlink:href="#J"/><use transform="matrix(0.0078125,0,0,0.0078125,220.8359375,0)" xlink:href="#x"/><use transform="matrix(0.0078125,0,0,0.0078125,230.4375,0)" xlink:href="#z"/></g><path fill="#24292f" d="M1000-272c3 95 12 159 101 161 21 0 41-3 59-7V-6c-44 10-86 16-139 16-141 2-191-84-197-217h-6C748-76 648 20 446 20c-207 0-318-120-318-322 0-266 194-348 454-354l236-4c12-191-40-305-222-305-140 0-220 47-232 172l-188-17c33-204 181-292 423-292 255 0 401 118 401 364v466zm-683-27c0 109 63 184 175 182 166-3 259-96 306-217 24-65 20-120 20-200-232 7-501-28-501 235" id="K"/><path fill="#24292f" d="M865-914c-3-187-2-380-2-570h180v1261c0 76 1 155 6 223H877c-8-49-9-116-10-174h-5C801-44 708 26 530 26c-135 0-234-46-297-139s-95-232-95-419c0-377 131-566 392-566 176 0 271 63 335 184zm-286-51c-222 0-255 197-255 427 0 229 31 425 253 425 237 0 286-195 286-441 0-238-52-411-284-411" id="L"/><path fill="#24292f" d="M622-1349c296 4 497 117 497 404 0 282-193 424-485 431H353V0H162v-1349h460zm-15 684c195-3 320-88 320-277 0-184-129-255-328-254H353v531h254" id="M"/><path fill="#24292f" d="M168 279c222 39 310-114 368-290L66-1082h192c120 299 249 590 362 896 115-301 235-597 351-896h190L705 0c-65 164-130 320-275 396-67 36-177 35-262 18V279" id="N"/><path fill="#24292f" d="M650-1214c-281 0-336 244-336 533 0 295 60 546 347 546 188 0 263-142 322-282l159 65C1058-155 935 20 659 20c-401 0-546-295-546-701 0-407 135-689 536-689 264 0 391 146 466 335l-168 65c-47-129-127-244-297-244" id="O"/><path fill="#24292f" d="M682 16c-209 0-323-80-324-285v-671H190v-142h170l58-282h120v282h432v142H538v652c2 114 60 155 182 155 106 0 209-16 297-34v137C921-4 806 16 682 16" id="P"/><path fill="#24292f" d="M891-1484c-201 251-362 514-362 954 0 441 161 704 362 955H701C500 176 342-90 342-532c0-440 159-704 359-952h190" id="Q"/><path fill="#24292f" d="M528-1484c201 248 357 511 357 952 0 442-156 709-357 957H336C537 174 700-89 700-530c0-440-163-703-364-954h192" id="R"/><g id="d"><use transform="matrix(0.0078125,0,0,0.0078125,0,0)" xlink:href="#K"/><use transform="matrix(0.0078125,0,0,0.0078125,9.6015625,0)" xlink:href="#L"/><use transform="matrix(0.0078125,0,0,0.0078125,19.203125,0)" xlink:href="#L"/><use transform="matrix(0.0078125,0,0,0.0078125,28.8046875,0)" xlink:href="#M"/><use transform="matrix(0.0078125,0,0,0.0078125,38.40625,0)" xlink:href="#F"/><use transform="matrix(0.0078125,0,0,0.0078125,48.0078125,0)" xlink:href="#J"/><use transform="matrix(0.0078125,0,0,0.0078125,57.609375,0)" xlink:href="#A"/><use transform="matrix(0.0078125,0,0,0.0078125,67.2109375,0)" xlink:href="#B"/><use transform="matrix(0.0078125,0,0,0.0078125,76.8125,0)" xlink:href="#N"/><use transform="matrix(0.0078125,0,0,0.0078125,86.4140625,0)" xlink:href="#O"/><use transform="matrix(0.0078125,0,0,0.0078125,96.015625,0)" xlink:href="#F"/><use transform="matrix(0.0078125,0,0,0.0078125,105.6171875,0)" xlink:href="#y"/><use transform="matrix(0.0078125,0,0,0.0078125,115.21875,0)" xlink:href="#P"/><use transform="matrix(0.0078125,0,0,0.0078125,124.8203125,0)" xlink:href="#z"/><use transform="matrix(0.0078125,0,0,0.0078125,134.421875,0)" xlink:href="#F"/><use transform="matrix(0.0078125,0,0,0.0078125,144.0234375,0)" xlink:href="#J"/><use transform="matrix(0.0078125,0,0,0.0078125,153.625,0)" xlink:href="#J"/><use transform="matrix(0.0078125,0,0,0.0078125,163.2265625,0)" xlink:href="#x"/><use transform="matrix(0.0078125,0,0,0.0078125,172.828125,0)" xlink:href="#z"/><use transform="matrix(0.0078125,0,0,0.0078125,182.4296875,0)" xlink:href="#Q"/><use transform="matrix(0.0078125,0,0,0.0078125,192.03125,0)" xlink:href="#R"/></g><path fill="#24292f" d="M904-1102c199 0 220 177 220 381V0H956v-686c-3-114 0-215-60-264-70-33-125-4-158 71-26 56-39 140-39 252V0H531v-686c-3-114-1-215-61-264-78-41-136 24-157 84-24 69-39 159-39 259V0H105c-3-360 6-732-6-1082h149c6 50 3 123 8 175 36-100 83-195 216-195 135 0 166 79 196 196 42-105 93-196 236-196" id="S"/><path fill="#24292f" d="M528 20c-247 0-343-132-343-381v-721h180v686c-4 177 45 284 224 277 194-8 279-136 279-336v-627h181c3 360-6 732 6 1082H885c-4-54-7-126-8-185h-3C809-64 714 20 528 20" id="T"/><g id="e"><use transform="matrix(0.0078125,0,0,0.0078125,0,0)" xlink:href="#K"/><use transform="matrix(0.0078125,0,0,0.0078125,9.6015625,0)" xlink:href="#L"/><use transform="matrix(0.0078125,0,0,0.0078125,19.203125,0)" xlink:href="#L"/><use transform="matrix(0.0078125,0,0,0.0078125,28.8046875,0)" xlink:href="#M"/><use transform="matrix(0.0078125,0,0,0.0078125,38.40625,0)" xlink:href="#J"/><use transform="matrix(0.0078125,0,0,0.0078125,48.0078125,0)" xlink:href="#K"/><use transform="matrix(0.0078125,0,0,0.0078125,57.609375,0)" xlink:href="#B"/><use transform="matrix(0.0078125,0,0,0.0078125,67.2109375,0)" xlink:href="#x"/><use transform="matrix(0.0078125,0,0,0.0078125,76.8125,0)" xlink:href="#S"/><use transform="matrix(0.0078125,0,0,0.0078125,86.4140625,0)" xlink:href="#x"/><use transform="matrix(0.0078125,0,0,0.0078125,96.015625,0)" xlink:href="#y"/><use transform="matrix(0.0078125,0,0,0.0078125,105.6171875,0)" xlink:href="#P"/><use transform="matrix(0.0078125,0,0,0.0078125,115.21875,0)" xlink:href="#I"/><use transform="matrix(0.0078125,0,0,0.0078125,124.8203125,0)" xlink:href="#T"/><use transform="matrix(0.0078125,0,0,0.0078125,134.421875,0)" xlink:href="#J"/><use transform="matrix(0.0078125,0,0,0.0078125,144.0234375,0)" xlink:href="#x"/><use transform="matrix(0.0078125,0,0,0.0078125,153.625,0)" xlink:href="#O"/><use transform="matrix(0.0078125,0,0,0.0078125,163.2265625,0)" xlink:href="#F"/><use transform="matrix(0.0078125,0,0,0.0078125,172.828125,0)" xlink:href="#y"/><use transform="matrix(0.0078125,0,0,0.0078125,182.4296875,0)" xlink:href="#P"/><use transform="matrix(0.0078125,0,0,0.0078125,192.03125,0)" xlink:href="#z"/><use transform="matrix(0.0078125,0,0,0.0078125,201.6328125,0)" xlink:href="#F"/><use transform="matrix(0.0078125,0,0,0.0078125,211.234375,0)" xlink:href="#J"/><use transform="matrix(0.0078125,0,0,0.0078125,220.8359375,0)" xlink:href="#J"/><use transform="matrix(0.0078125,0,0,0.0078125,230.4375,0)" xlink:href="#x"/><use transform="matrix(0.0078125,0,0,0.0078125,240.0390625,0)" xlink:href="#z"/><use transform="matrix(0.0078125,0,0,0.0078125,249.640625,0)" xlink:href="#Q"/><use transform="matrix(0.0078125,0,0,0.0078125,259.2421875,0)" xlink:href="#R"/></g><g id="f"><use transform="matrix(0.0078125,0,0,0.0078125,0,0)" xlink:href="#K"/><use transform="matrix(0.0078125,0,0,0.0078125,9.6015625,0)" xlink:href="#L"/><use transform="matrix(0.0078125,0,0,0.0078125,19.203125,0)" xlink:href="#L"/><use transform="matrix(0.0078125,0,0,0.0078125,28.8046875,0)" xlink:href="#M"/><use transform="matrix(0.0078125,0,0,0.0078125,38.40625,0)" xlink:href="#J"/><use transform="matrix(0.0078125,0,0,0.0078125,48.0078125,0)" xlink:href="#K"/><use transform="matrix(0.0078125,0,0,0.0078125,57.609375,0)" xlink:href="#B"/><use transform="matrix(0.0078125,0,0,0.0078125,67.2109375,0)" xlink:href="#x"/><use transform="matrix(0.0078125,0,0,0.0078125,76.8125,0)" xlink:href="#S"/><use transform="matrix(0.0078125,0,0,0.0078125,86.4140625,0)" xlink:href="#x"/><use transform="matrix(0.0078125,0,0,0.0078125,96.015625,0)" xlink:href="#y"/><use transform="matrix(0.0078125,0,0,0.0078125,105.6171875,0)" xlink:href="#P"/><use transform="matrix(0.0078125,0,0,0.0078125,115.21875,0)" xlink:href="#H"/><use transform="matrix(0.0078125,0,0,0.0078125,124.8203125,0)" xlink:href="#A"/><use transform="matrix(0.0078125,0,0,0.0078125,134.421875,0)" xlink:href="#y"/><use transform="matrix(0.0078125,0,0,0.0078125,144.0234375,0)" xlink:href="#L"/><use transform="matrix(0.0078125,0,0,0.0078125,153.625,0)" xlink:href="#A"/><use transform="matrix(0.0078125,0,0,0.0078125,163.2265625,0)" xlink:href="#y"/><use transform="matrix(0.0078125,0,0,0.0078125,172.828125,0)" xlink:href="#w"/><use transform="matrix(0.0078125,0,0,0.0078125,182.4296875,0)" xlink:href="#O"/><use transform="matrix(0.0078125,0,0,0.0078125,192.03125,0)" xlink:href="#F"/><use transform="matrix(0.0078125,0,0,0.0078125,201.6328125,0)" xlink:href="#y"/><use transform="matrix(0.0078125,0,0,0.0078125,211.234375,0)" xlink:href="#P"/><use transform="matrix(0.0078125,0,0,0.0078125,220.8359375,0)" xlink:href="#z"/><use transform="matrix(0.0078125,0,0,0.0078125,230.4375,0)" xlink:href="#F"/><use transform="matrix(0.0078125,0,0,0.0078125,240.0390625,0)" xlink:href="#J"/><use transform="matrix(0.0078125,0,0,0.0078125,249.640625,0)" xlink:href="#J"/><use transform="matrix(0.0078125,0,0,0.0078125,259.2421875,0)" xlink:href="#x"/><use transform="matrix(0.0078125,0,0,0.0078125,268.84375,0)" xlink:href="#z"/><use transform="matrix(0.0078125,0,0,0.0078125,278.4453125,0)" xlink:href="#Q"/><use transform="matrix(0.0078125,0,0,0.0078125,288.046875,0)" xlink:href="#R"/></g><path fill="#24292f" d="M875 0v-623H353V0H162v-1349h191v566h522v-566h191V0H875" id="U"/><path fill="#24292f" d="M365-904c58-129 161-200 334-200 130 0 228 46 293 138s98 233 98 420c0 189-34 331-102 425S824 20 698 20c-170 0-275-64-336-184 0 55-3 116-9 164H179c5-68 6-147 6-223v-1261h180c-2 193 4 394-4 580h4zm283 791c221 0 256-197 256-427 0-229-34-425-254-425-236 0-285 195-285 441 0 237 53 411 283 411" id="V"/><path fill="#24292f" d="M102-681c0-398 126-689 513-689 165 0 291 58 379 174s132 287 132 515c-1 318-88 554-298 657-123 61-317 58-438-3-206-104-288-341-288-654zm749 406c94-160 97-656-5-807-57-85-130-132-231-132-104 0-178 47-234 132-101 153-99 655 1 809 57 89 130 138 232 138 109 0 184-49 237-140" id="W"/><path fill="#24292f" d="M839-1335c-182-6-269 67-259 253h491v142H580V0H400v-940H138v-142h262c-15-293 132-408 418-402 94 2 200 7 281 21v145c-75-10-177-14-260-17" id="X"/><path fill="#24292f" d="M873-819c-18-114-119-146-250-146-163 0-245 50-245 151 0 151 170 148 294 185 182 54 388 94 388 320 0 240-189 325-439 329-245 4-410-69-454-268l159-31c24 133 136 168 295 165 144-2 270-31 270-171 0-164-195-160-331-202-167-52-350-87-350-299 0-218 173-315 413-313 220 2 373 77 412 260" id="Y"/><g id="g"><use transform="matrix(0.0078125,0,0,0.0078125,0,0)" xlink:href="#K"/><use transform="matrix(0.0078125,0,0,0.0078125,9.6015625,0)" xlink:href="#L"/><use transform="matrix(0.0078125,0,0,0.0078125,19.203125,0)" xlink:href="#L"/><use transform="matrix(0.0078125,0,0,0.0078125,28.8046875,0)" xlink:href="#U"/><use transform="matrix(0.0078125,0,0,0.0078125,38.40625,0)" xlink:href="#T"/><use transform="matrix(0.0078125,0,0,0.0078125,48.0078125,0)" xlink:href="#V"/><use transform="matrix(0.0078125,0,0,0.0078125,57.609375,0)" xlink:href="#W"/><use transform="matrix(0.0078125,0,0,0.0078125,67.2109375,0)" xlink:href="#X"/><use transform="matrix(0.0078125,0,0,0.0078125,76.8125,0)" xlink:href="#U"/><use transform="matrix(0.0078125,0,0,0.0078125,86.4140625,0)" xlink:href="#T"/><use transform="matrix(0.0078125,0,0,0.0078125,96.015625,0)" xlink:href="#V"/><use transform="matrix(0.0078125,0,0,0.0078125,105.6171875,0)" xlink:href="#Y"/><use transform="matrix(0.0078125,0,0,0.0078125,115.21875,0)" xlink:href="#O"/><use transform="matrix(0.0078125,0,0,0.0078125,124.8203125,0)" xlink:href="#F"/><use transform="matrix(0.0078125,0,0,0.0078125,134.421875,0)" xlink:href="#y"/><use transform="matrix(0.0078125,0,0,0.0078125,144.0234375,0)" xlink:href="#X"/><use transform="matrix(0.0078125,0,0,0.0078125,153.625,0)" xlink:href="#A"/><use transform="matrix(0.0078125,0,0,0.0078125,163.2265625,0)" xlink:href="#w"/><use transform="matrix(0.0078125,0,0,0.0078125,172.828125,0)" xlink:href="#O"/><use transform="matrix(0.0078125,0,0,0.0078125,182.4296875,0)" xlink:href="#F"/><use transform="matrix(0.0078125,0,0,0.0078125,192.03125,0)" xlink:href="#y"/><use transform="matrix(0.0078125,0,0,0.0078125,201.6328125,0)" xlink:href="#P"/><use transform="matrix(0.0078125,0,0,0.0078125,211.234375,0)" xlink:href="#z"/><use transform="matrix(0.0078125,0,0,0.0078125,220.8359375,0)" xlink:href="#F"/><use transform="matrix(0.0078125,0,0,0.0078125,230.4375,0)" xlink:href="#J"/><use transform="matrix(0.0078125,0,0,0.0078125,240.0390625,0)" xlink:href="#J"/><use transform="matrix(0.0078125,0,0,0.0078125,249.640625,0)" xlink:href="#x"/><use transform="matrix(0.0078125,0,0,0.0078125,259.2421875,0)" xlink:href="#z"/><use transform="matrix(0.0078125,0,0,0.0078125,268.84375,0)" xlink:href="#Q"/><use transform="matrix(0.0078125,0,0,0.0078125,278.4453125,0)" xlink:href="#R"/></g><path fill="#24292f" d="M1034 0L896-382H333L196 0H0l510-1349h217L1228 0h-194zM847-531c-77-225-157-447-231-674-69 231-154 451-232 674h463" id="Z"/><g id="h"><use transform="matrix(0.0078125,0,0,0.0078125,0,0)" xlink:href="#Z"/><use transform="matrix(0.0078125,0,0,0.0078125,9.6015625,0)" xlink:href="#L"/><use transform="matrix(0.0078125,0,0,0.0078125,19.203125,0)" xlink:href="#L"/><use transform="matrix(0.0078125,0,0,0.0078125,28.8046875,0)" xlink:href="#O"/><use transform="matrix(0.0078125,0,0,0.0078125,38.40625,0)" xlink:href="#F"/><use transform="matrix(0.0078125,0,0,0.0078125,48.0078125,0)" xlink:href="#y"/><use transform="matrix(0.0078125,0,0,0.0078125,57.609375,0)" xlink:href="#P"/><use transform="matrix(0.0078125,0,0,0.0078125,67.2109375,0)" xlink:href="#z"/><use transform="matrix(0.0078125,0,0,0.0078125,76.8125,0)" xlink:href="#F"/><use transform="matrix(0.0078125,0,0,0.0078125,86.4140625,0)" xlink:href="#J"/><use transform="matrix(0.0078125,0,0,0.0078125,96.015625,0)" xlink:href="#J"/><use transform="matrix(0.0078125,0,0,0.0078125,105.6171875,0)" xlink:href="#x"/><use transform="matrix(0.0078125,0,0,0.0078125,115.21875,0)" xlink:href="#z"/><use transform="matrix(0.0078125,0,0,0.0078125,124.8203125,0)" xlink:href="#Y"/><use transform="matrix(0.0078125,0,0,0.0078125,134.421875,0)" xlink:href="#Q"/><use transform="matrix(0.0078125,0,0,0.0078125,144.0234375,0)" xlink:href="#R"/></g><path fill="#333" d="M210-169c-67 3-38 105-44 169h-31v-121c0-29-5-50-35-48C34-165 62-65 56 0H25l-1-190h30c1 10-1 24 2 32 10-44 99-50 107 0 11-21 27-35 58-36 85-2 47 119 55 194h-31v-121c0-29-5-49-35-48" id="aa"/><path fill="#333" d="M24-231v-30h32v30H24zM24 0v-190h32V0H24" id="ab"/><g id="i"><use transform="matrix(0.05,0,0,0.05,0,0)" xlink:href="#aa"/><use transform="matrix(0.05,0,0,0.05,14.950000000000001,0)" xlink:href="#m"/><use transform="matrix(0.05,0,0,0.05,24.950000000000003,0)" xlink:href="#ab"/><use transform="matrix(0.05,0,0,0.05,28.900000000000002,0)" xlink:href="#s"/></g><g id="j"><use transform="matrix(0.0078125,0,0,0.0078125,0,0)" xlink:href="#S"/><use transform="matrix(0.0078125,0,0,0.0078125,9.6015625,0)" xlink:href="#K"/><use transform="matrix(0.0078125,0,0,0.0078125,19.203125,0)" xlink:href="#A"/><use transform="matrix(0.0078125,0,0,0.0078125,28.8046875,0)" xlink:href="#y"/><use transform="matrix(0.0078125,0,0,0.0078125,38.40625,0)" xlink:href="#Q"/><use transform="matrix(0.0078125,0,0,0.0078125,48.0078125,0)" xlink:href="#R"/></g><path fill="#24292f" d="M648-963c-190 6-283 138-283 336V0H185v-1484h181c-2 197 6 404-9 587h3c62-120 159-205 339-205 242 0 351 135 350 381V0H868v-695c1-168-57-273-220-268" id="ac"/><g id="k"><use transform="matrix(0.0078125,0,0,0.0078125,0,0)" xlink:href="#Z"/><use transform="matrix(0.0078125,0,0,0.0078125,9.6015625,0)" xlink:href="#L"/><use transform="matrix(0.0078125,0,0,0.0078125,19.203125,0)" xlink:href="#L"/><use transform="matrix(0.0078125,0,0,0.0078125,28.8046875,0)" xlink:href="#E"/><use transform="matrix(0.0078125,0,0,0.0078125,38.40625,0)" xlink:href="#F"/><use transform="matrix(0.0078125,0,0,0.0078125,48.0078125,0)" xlink:href="#C"/><use transform="matrix(0.0078125,0,0,0.0078125,57.609375,0)" xlink:href="#B"/><use transform="matrix(0.0078125,0,0,0.0078125,67.2109375,0)" xlink:href="#ac"/><use transform="matrix(0.0078125,0,0,0.0078125,76.8125,0)" xlink:href="#x"/><use transform="matrix(0.0078125,0,0,0.0078125,86.4140625,0)" xlink:href="#S"/><use transform="matrix(0.0078125,0,0,0.0078125,96.015625,0)" xlink:href="#x"/><use transform="matrix(0.0078125,0,0,0.0078125,105.6171875,0)" xlink:href="#Q"/><use transform="matrix(0.0078125,0,0,0.0078125,115.21875,0)" xlink:href="#R"/></g></defs></g></svg>